# Blender v2.79 (sub 0) OBJ File: 'street_tiles_3.blend'
# www.blender.org
mtllib ontrack_car_fenster.mtl
o car_fenster_Cube.003
v 0.160396 1.942131 1.028196
v 0.374075 1.943727 0.966441
v 0.509735 1.941276 0.911172
v 0.767591 1.384280 1.623227
v 0.586708 1.381986 1.644029
v 0.866681 1.354501 -0.569564
v 0.280237 1.383228 1.671267
v 0.797571 1.349358 1.091935
v 0.596129 1.927464 0.410681
v 0.600933 1.927551 0.628301
v 0.837636 1.349358 1.251713
v 0.868920 1.349276 0.048742
v 0.604031 1.927623 -0.292870
v 0.617619 1.919165 -0.582983
v 0.866202 1.354402 -0.220147
v 0.604038 1.918076 -0.420530
v 0.867067 1.354581 -0.850484
v 0.617530 1.918576 -0.731097
v 0.182189 1.366692 -1.071823
v 0.155144 1.907534 -0.840853
v 0.840535 1.366602 -0.895456
v 0.580923 1.917475 -0.760712
v 0.736476 1.638450 -0.122064
v 0.696850 1.638411 0.751308
v 0.480392 1.662857 1.305235
v 0.220316 1.662679 1.349731
v 0.742150 1.636833 -0.576274
v 0.735120 1.636239 -0.320338
v 0.742298 1.636578 -0.790791
v 0.168667 1.637113 -0.956338
v 0.718866 1.624773 -0.832307
v 0.714266 1.650713 0.926789
v 0.637877 1.664475 1.265030
v -0.160396 1.942131 1.028196
v 0.000000 1.385329 1.669761
v -0.374075 1.943727 0.966441
v -0.509735 1.941276 0.911172
v -0.767591 1.384280 1.623227
v -0.586708 1.381986 1.644029
v 0.000000 1.940118 1.030238
v -0.866681 1.354501 -0.569564
v -0.280237 1.383228 1.671267
v -0.797571 1.349358 1.091935
v -0.596129 1.927464 0.410681
v -0.600933 1.927551 0.628301
v -0.837636 1.349358 1.251713
v -0.868920 1.349276 0.048742
v -0.604031 1.927623 -0.292870
v -0.617619 1.919165 -0.582983
v -0.866202 1.354402 -0.220147
v -0.604038 1.918076 -0.420530
v -0.867067 1.354581 -0.850484
v -0.617530 1.918576 -0.731097
v -0.182189 1.366692 -1.071823
v 0.000000 1.367747 -1.074176
v -0.155144 1.907534 -0.840853
v 0.000000 1.904432 -0.842187
v -0.840535 1.366602 -0.895456
v -0.580923 1.917475 -0.760712
v -0.736476 1.638450 -0.122064
v -0.696850 1.638411 0.751308
v 0.000000 1.662723 1.350000
v -0.480392 1.662857 1.305235
v -0.220316 1.662679 1.349731
v -0.742150 1.636833 -0.576274
v -0.735120 1.636239 -0.320338
v -0.742298 1.636578 -0.790791
v 0.000000 1.636089 -0.958182
v -0.168667 1.637113 -0.956338
v -0.718866 1.624773 -0.832307
v -0.714266 1.650713 0.926789
v -0.637877 1.664475 1.265030
v 0.159047 1.926824 1.015395
v 0.370805 1.928041 0.954472
v 0.505939 1.925374 0.899654
v 0.765599 1.368454 1.611162
v 0.584878 1.366349 1.631696
v 0.848434 1.346314 -0.569691
v 0.279346 1.367952 1.658389
v 0.778268 1.344713 1.094350
v 0.577559 1.920040 0.410548
v 0.581834 1.921752 0.629564
v 0.818244 1.345889 1.255164
v 0.850738 1.341014 0.047690
v 0.585664 1.919727 -0.293424
v 0.599401 1.910927 -0.583437
v 0.848004 1.346112 -0.220382
v 0.585907 1.909685 -0.421456
v 0.848772 1.346501 -0.850501
v 0.599237 1.910493 -0.731082
v 0.179790 1.359059 -1.053493
v 0.153159 1.899999 -0.822433
v 0.835970 1.359330 -0.877393
v 0.577079 1.910363 -0.742420
v 0.718171 1.630424 -0.122792
v 0.678027 1.631666 0.751744
v 0.477860 1.647196 1.293057
v 0.219214 1.647391 1.336885
v 0.723917 1.628621 -0.576566
v 0.716946 1.627907 -0.320853
v 0.724004 1.628497 -0.790793
v 0.166474 1.629527 -0.937963
v 0.714572 1.617561 -0.814154
v 0.694902 1.646626 0.929676
v 0.635022 1.648595 1.253213
v -0.159047 1.926824 1.015395
v 0.000000 1.370227 1.656651
v -0.370805 1.928041 0.954472
v -0.505939 1.925374 0.899654
v -0.765599 1.368454 1.611162
v -0.584878 1.366349 1.631696
v 0.000000 1.925016 1.017125
v -0.848434 1.346314 -0.569691
v -0.279346 1.367952 1.658389
v -0.778268 1.344713 1.094350
v -0.577559 1.920040 0.410548
v -0.581834 1.921752 0.629564
v -0.818244 1.345889 1.255164
v -0.850738 1.341014 0.047690
v -0.585664 1.919727 -0.293424
v -0.599401 1.910927 -0.583437
v -0.848004 1.346112 -0.220382
v -0.585907 1.909685 -0.421456
v -0.848772 1.346501 -0.850501
v -0.599237 1.910493 -0.731082
v -0.179790 1.359059 -1.053493
v 0.000000 1.359848 -1.055803
v -0.153159 1.899999 -0.822433
v 0.000000 1.896535 -0.823813
v -0.835970 1.359330 -0.877393
v -0.577079 1.910363 -0.742420
v -0.718171 1.630424 -0.122792
v -0.678027 1.631666 0.751744
v 0.000000 1.647622 1.336888
v -0.477860 1.647196 1.293057
v -0.219214 1.647391 1.336885
v -0.723917 1.628621 -0.576566
v -0.716946 1.627907 -0.320853
v -0.724004 1.628497 -0.790793
v 0.000000 1.628191 -0.939808
v -0.166474 1.629527 -0.937963
v -0.714572 1.617561 -0.814154
v -0.694902 1.646626 0.929676
v -0.635022 1.648595 1.253213
vt 0.947973 0.852857
vt 0.947405 0.797266
vt 0.966170 0.786455
vt 0.966170 0.831238
vt 0.816950 0.849340
vt 0.792949 0.845526
vt 0.793113 0.835316
vt 0.816956 0.835316
vt 0.909479 0.899839
vt 0.909575 0.916129
vt 0.891377 0.916558
vt 0.891185 0.906219
vt 0.908562 0.850805
vt 0.891194 0.851652
vt 0.891185 0.840057
vt 0.908458 0.840070
vt 0.839432 0.884177
vt 0.814273 0.875920
vt 0.815583 0.865895
vt 0.840183 0.872663
vt 0.790982 0.859128
vt 0.966042 0.845091
vt 0.948303 0.864031
vt 0.928641 0.877018
vt 0.911300 0.885754
vt 0.925931 0.849958
vt 0.927773 0.915701
vt 0.927773 0.933583
vt 0.909590 0.929784
vt 0.929775 0.874475
vt 0.928641 0.808077
vt 0.840952 0.853155
vt 0.840799 0.835316
vt 0.891407 0.925986
vt 0.927773 0.893459
vt 0.925731 0.840083
vt 0.896004 0.893459
vt 0.928994 0.884649
vt 0.789420 0.867763
vt 0.804016 0.951432
vt 0.789762 0.928869
vt 0.790440 0.884177
vt 0.804355 0.896037
vt 0.816950 0.821292
vt 0.792949 0.825106
vt 0.980191 0.859560
vt 0.966458 0.852489
vt 0.966170 0.842204
vt 0.980047 0.843313
vt 0.908562 0.829333
vt 0.891194 0.828458
vt 0.839432 0.786455
vt 0.840183 0.797969
vt 0.815583 0.804736
vt 0.814273 0.794712
vt 0.790982 0.811504
vt 0.789420 0.942714
vt 0.802814 0.962607
vt 0.928641 0.803064
vt 0.925931 0.830208
vt 0.911300 0.794239
vt 0.980067 0.829677
vt 0.993924 0.826565
vt 0.993924 0.844421
vt 0.818270 0.973994
vt 0.818270 0.907897
vt 0.840952 0.817477
vt 0.966211 0.832789
vt 0.993924 0.866631
vt 0.896004 0.786455
vt 0.817394 0.984263
vt 0.789420 0.802869
vt 0.860233 0.914704
vt 0.878382 0.936277
vt 0.878382 0.981053
vt 0.859670 0.970426
vt 0.862996 0.850702
vt 0.862998 0.836933
vt 0.884312 0.839224
vt 0.884430 0.849231
vt 0.909406 0.967397
vt 0.891185 0.961146
vt 0.891348 0.950804
vt 0.909488 0.951119
vt 0.968709 0.948460
vt 0.968720 0.937863
vt 0.978801 0.937863
vt 0.978911 0.949308
vt 0.844328 0.882646
vt 0.843107 0.871305
vt 0.865557 0.866877
vt 0.867901 0.876699
vt 0.888005 0.862447
vt 0.878357 0.922370
vt 0.860753 0.903460
vt 0.960423 0.974597
vt 0.958506 0.947612
vt 0.973096 0.983349
vt 0.909499 0.937501
vt 0.927627 0.933583
vt 0.927629 0.951434
vt 0.842169 0.893042
vt 0.840952 0.959810
vt 0.841561 0.852171
vt 0.841684 0.834643
vt 0.891371 0.941420
vt 0.927629 0.973641
vt 0.958640 0.937863
vt 0.984274 0.991077
vt 0.841516 0.882951
vt 0.891185 0.870820
vt 0.943689 0.916920
vt 0.943967 0.972599
vt 0.930378 0.983698
vt 0.929740 0.938891
vt 0.862996 0.823160
vt 0.884430 0.829248
vt 0.980663 0.792830
vt 0.980508 0.809109
vt 0.966974 0.809528
vt 0.967286 0.799214
vt 0.968709 0.927266
vt 0.978911 0.926418
vt 0.844328 0.786455
vt 0.867900 0.796914
vt 0.865557 0.806838
vt 0.843107 0.797820
vt 0.888005 0.815858
vt 0.929323 0.924955
vt 0.942337 0.905621
vt 0.960423 0.901129
vt 0.973096 0.892377
vt 0.958506 0.928114
vt 0.994042 0.808690
vt 0.994042 0.826565
vt 0.980526 0.822746
vt 0.957561 0.894862
vt 0.957561 0.961510
vt 0.841561 0.817074
vt 0.967010 0.818926
vt 0.994041 0.786455
vt 0.984274 0.884649
vt 0.956571 0.884649
vt 0.891185 0.807252
vt 0.840952 0.852403
vt 0.841060 0.834817
vt 0.837610 0.977975
vt 0.837611 0.960315
vt 0.838757 0.960270
vt 0.838757 0.977925
vt 0.824678 0.916690
vt 0.824628 0.906479
vt 0.825782 0.906562
vt 0.825830 0.916687
vt 0.826230 0.892843
vt 0.827382 0.893049
vt 0.843771 0.882951
vt 0.842533 0.871599
vt 0.891082 0.912614
vt 0.891082 0.942641
vt 0.889969 0.942653
vt 0.889988 0.912629
vt 0.891082 0.882951
vt 0.890012 0.882968
vt 0.832772 0.884177
vt 0.830187 0.949736
vt 0.829018 0.949934
vt 0.831629 0.884195
vt 0.819442 0.938100
vt 0.820344 0.945175
vt 0.819195 0.944991
vt 0.818270 0.937964
vt 0.821925 0.912319
vt 0.820744 0.912226
vt 0.832772 0.959777
vt 0.831611 0.960029
vt 0.824628 0.967807
vt 0.823489 0.967609
vt 0.839947 0.904619
vt 0.839947 0.925061
vt 0.838804 0.925142
vt 0.838798 0.904692
vt 0.837614 0.938348
vt 0.838757 0.938309
vt 0.831627 0.960462
vt 0.831627 0.965289
vt 0.830543 0.964849
vt 0.830548 0.960029
vt 0.825756 0.967639
vt 0.825756 0.988591
vt 0.824628 0.988500
vt 0.824637 0.967549
vt 0.878529 0.924596
vt 0.888844 0.882951
vt 0.889969 0.883282
vt 0.879673 0.924795
vt 0.878382 0.936035
vt 0.879530 0.936085
vt 0.957561 0.947739
vt 0.957678 0.937863
vt 0.959503 0.974842
vt 0.832772 0.960345
vt 0.832772 0.974357
vt 0.831634 0.974053
vt 0.831638 0.960029
vt 0.836445 0.958623
vt 0.836445 0.939260
vt 0.837610 0.939318
vt 0.837610 0.958682
vt 0.830166 0.960029
vt 0.830166 0.964829
vt 0.829018 0.965067
vt 0.829019 0.960290
vt 0.827868 0.884177
vt 0.829018 0.884417
vt 0.832772 0.988369
vt 0.831627 0.988089
vt 0.839947 0.884177
vt 0.838794 0.884244
vt 0.836446 0.977987
vt 0.837610 0.978046
vt 0.825756 0.949158
vt 0.824643 0.949069
vt 0.824628 0.884255
vt 0.823448 0.884177
vt 0.840952 0.817194
vt 0.840938 0.906244
vt 0.840938 0.923905
vt 0.839947 0.923796
vt 0.839951 0.906140
vt 0.824628 0.926898
vt 0.825782 0.926809
vt 0.826230 0.940464
vt 0.827382 0.940254
vt 0.842533 0.797884
vt 0.843771 0.786510
vt 0.836444 0.939260
vt 0.836437 0.911584
vt 0.837610 0.911494
vt 0.837608 0.939148
vt 0.836431 0.884244
vt 0.837610 0.884177
vt 0.833849 0.894401
vt 0.836431 0.960192
vt 0.835449 0.960120
vt 0.832772 0.894142
vt 0.928975 0.938900
vt 0.928641 0.925052
vt 0.838794 0.884177
vt 0.838794 0.910096
vt 0.837610 0.910058
vt 0.837615 0.884182
vt 0.836431 0.884491
vt 0.835338 0.884177
vt 0.929590 0.983681
vt 0.839947 0.925223
vt 0.839947 0.945665
vt 0.838798 0.945592
vt 0.838804 0.925142
vt 0.840938 0.884275
vt 0.839954 0.884177
vt 0.966213 0.818930
vt 0.966170 0.809502
vt 0.829018 0.949069
vt 0.829018 0.964839
vt 0.827866 0.965063
vt 0.827860 0.949277
vt 0.888844 0.988558
vt 0.878529 0.947487
vt 0.879673 0.947384
vt 0.889969 0.988315
vt 0.957561 0.927987
vt 0.959503 0.900884
vt 0.827860 0.963296
vt 0.827860 0.977522
vt 0.826735 0.977860
vt 0.826731 0.963622
vt 0.891130 0.942653
vt 0.891130 0.962056
vt 0.889969 0.962119
vt 0.889969 0.942715
vt 0.966475 0.799159
vt 0.827868 0.949069
vt 0.829018 0.948825
vt 0.827860 0.949069
vt 0.826723 0.949372
vt 0.839947 0.966106
vt 0.838794 0.966039
vt 0.891130 0.981460
vt 0.889969 0.981523
vt 0.829018 0.978748
vt 0.827870 0.978983
vt 0.838794 0.938309
vt 0.837612 0.938256
vn 0.9412 0.3373 -0.0218
vn 0.9152 0.4013 0.0364
vn 0.9183 0.3948 0.0277
vn 0.9285 0.3712 0.0067
vn 0.0551 0.7644 0.6423
vn 0.0675 0.7654 0.6400
vn -0.0000 0.7551 0.6556
vn 0.9087 0.4166 0.0257
vn 0.9117 0.4106 0.0146
vn 0.9109 0.4119 0.0227
vn 0.9066 0.4195 0.0463
vn 0.1096 0.3793 -0.9187
vn 0.1200 0.3817 -0.9165
vn -0.0000 0.3950 -0.9187
vn -0.0000 0.3949 -0.9187
vn 0.0996 0.7913 0.6033
vn 0.1428 0.7940 0.5909
vn 0.1266 0.7830 0.6090
vn 0.0915 0.7819 0.6167
vn 0.1635 0.7843 0.5985
vn 0.9550 0.2899 -0.0631
vn 0.9682 0.2044 -0.1444
vn 0.1922 0.3556 -0.9147
vn 0.2147 0.3606 -0.9077
vn 0.0993 0.3768 -0.9210
vn 0.9124 0.4094 0.0064
vn 0.9147 0.4040 0.0008
vn 0.9147 0.4041 0.0001
vn 0.9651 0.2322 -0.1208
vn 0.9091 0.4132 0.0526
vn 0.0446 0.7638 0.6439
vn 0.9147 0.4042 -0.0008
vn 0.9100 0.4145 0.0118
vn -0.0000 0.3948 -0.9187
vn 0.2282 0.3636 -0.9032
vn 0.9696 0.1734 -0.1726
vn 0.1898 0.7951 0.5759
vn -0.9412 0.3373 -0.0218
vn -0.9285 0.3712 0.0067
vn -0.9183 0.3948 0.0277
vn -0.9152 0.4013 0.0364
vn -0.0551 0.7644 0.6423
vn -0.0675 0.7654 0.6400
vn -0.9087 0.4166 0.0257
vn -0.9066 0.4195 0.0463
vn -0.9109 0.4119 0.0227
vn -0.9117 0.4106 0.0146
vn -0.1096 0.3793 -0.9187
vn -0.1200 0.3817 -0.9165
vn -0.0996 0.7913 0.6033
vn -0.0915 0.7819 0.6167
vn -0.1266 0.7830 0.6090
vn -0.1428 0.7940 0.5909
vn -0.1635 0.7843 0.5985
vn -0.9550 0.2899 -0.0631
vn -0.9682 0.2044 -0.1444
vn -0.1922 0.3556 -0.9147
vn -0.0993 0.3768 -0.9210
vn -0.2147 0.3606 -0.9077
vn -0.9147 0.4041 0.0001
vn -0.9147 0.4040 0.0008
vn -0.9124 0.4094 0.0064
vn -0.9651 0.2322 -0.1208
vn -0.9091 0.4132 0.0526
vn -0.0446 0.7638 0.6439
vn -0.9147 0.4042 -0.0008
vn -0.9100 0.4145 0.0118
vn -0.2282 0.3636 -0.9032
vn -0.9696 0.1734 -0.1726
vn -0.1898 0.7951 0.5759
vn -0.9410 -0.3376 0.0218
vn -0.9286 -0.3711 -0.0066
vn -0.9183 -0.3949 -0.0277
vn -0.9151 -0.4015 -0.0363
vn -0.0551 -0.7644 -0.6423
vn -0.0000 -0.7551 -0.6556
vn -0.0000 -0.7551 -0.6557
vn -0.0674 -0.7654 -0.6401
vn -0.9087 -0.4166 -0.0257
vn -0.9065 -0.4195 -0.0464
vn -0.9109 -0.4119 -0.0227
vn -0.9117 -0.4107 -0.0146
vn -0.1094 -0.3794 0.9188
vn -0.0000 -0.3949 0.9187
vn -0.0000 -0.3950 0.9187
vn -0.1196 -0.3817 0.9165
vn -0.0996 -0.7913 -0.6033
vn -0.0915 -0.7819 -0.6167
vn -0.1267 -0.7830 -0.6089
vn -0.1427 -0.7940 -0.5909
vn -0.1636 -0.7843 -0.5985
vn -0.9549 -0.2901 0.0631
vn -0.9682 -0.2055 0.1429
vn -0.1924 -0.3556 0.9146
vn -0.0992 -0.3768 0.9210
vn -0.2149 -0.3606 0.9076
vn -0.9147 -0.4041 -0.0001
vn -0.9148 -0.4040 -0.0008
vn -0.9124 -0.4094 -0.0064
vn -0.9651 -0.2330 0.1198
vn -0.9089 -0.4136 -0.0522
vn -0.0445 -0.7638 -0.6439
vn -0.9147 -0.4041 0.0008
vn -0.9100 -0.4145 -0.0118
vn -0.2284 -0.3636 0.9031
vn -0.9697 -0.1745 0.1711
vn -0.1899 -0.7952 -0.5758
vn 0.9410 -0.3376 0.0218
vn 0.9151 -0.4015 -0.0363
vn 0.9183 -0.3949 -0.0277
vn 0.9286 -0.3711 -0.0066
vn 0.0551 -0.7644 -0.6423
vn 0.0674 -0.7654 -0.6401
vn 0.9087 -0.4166 -0.0257
vn 0.9117 -0.4107 -0.0146
vn 0.9109 -0.4119 -0.0227
vn 0.9065 -0.4195 -0.0464
vn 0.1094 -0.3794 0.9188
vn 0.1196 -0.3817 0.9165
vn 0.0996 -0.7913 -0.6033
vn 0.1427 -0.7940 -0.5909
vn 0.1267 -0.7830 -0.6089
vn 0.0915 -0.7819 -0.6167
vn 0.1636 -0.7843 -0.5985
vn 0.9549 -0.2901 0.0631
vn 0.9682 -0.2055 0.1429
vn 0.1924 -0.3556 0.9146
vn 0.2149 -0.3606 0.9076
vn 0.0992 -0.3768 0.9210
vn 0.9124 -0.4094 -0.0064
vn 0.9148 -0.4040 -0.0008
vn 0.9147 -0.4041 -0.0001
vn 0.9651 -0.2330 0.1198
vn 0.9089 -0.4136 -0.0522
vn 0.0445 -0.7638 -0.6439
vn 0.9147 -0.4041 0.0008
vn 0.9100 -0.4145 -0.0118
vn 0.2284 -0.3636 0.9031
vn 0.9697 -0.1745 0.1711
vn 0.1899 -0.7952 -0.5758
vn 0.0281 -0.6424 0.7658
vn 0.0000 -0.6499 0.7600
vn 0.0274 -0.6425 0.7658
vn 0.4067 -0.9136 0.0001
vn 0.4093 -0.9124 0.0001
vn 0.0000 0.6490 -0.7608
vn -0.1173 0.6424 -0.7573
vn -0.1198 0.6421 -0.7572
vn -0.2527 0.6211 -0.7419
vn -0.2547 0.6206 -0.7416
vn 0.0968 -0.6172 0.7808
vn 0.0812 -0.6256 0.7759
vn 0.0805 -0.6260 0.7757
vn 0.9513 0.0538 -0.3037
vn 0.9543 0.0726 -0.2901
vn 0.9512 0.0535 -0.3040
vn 0.9477 0.0347 -0.3174
vn 0.3263 -0.9450 0.0242
vn 0.2643 -0.9644 -0.0102
vn 0.2614 -0.9651 -0.0118
vn -0.3311 0.9436 0.0030
vn -0.3570 0.9341 -0.0007
vn -0.3574 0.9339 -0.0008
vn -0.0681 0.7198 0.6908
vn -0.1075 0.7103 0.6956
vn -0.0693 0.7195 0.6910
vn 0.1983 -0.9791 -0.0459
vn -0.3830 0.9237 -0.0045
vn -0.1517 0.2683 0.9513
vn -0.1596 0.2646 0.9511
vn -0.1518 0.2682 0.9513
vn 0.4119 -0.9112 0.0001
vn -0.4115 0.9113 -0.0153
vn -0.4081 0.9130 -0.0028
vn -0.4116 0.9112 -0.0156
vn 0.8809 0.3319 0.3374
vn 0.8830 0.3349 0.3288
vn 0.8808 0.3318 0.3378
vn 0.0485 -0.9253 -0.3760
vn 0.0970 -0.9274 -0.3612
vn 0.0489 -0.9254 -0.3759
vn 0.0000 -0.9209 -0.3897
vn -0.0567 0.9268 0.3713
vn -0.0000 0.9226 0.3857
vn -0.0559 0.9267 0.3716
vn -0.0895 0.9299 0.3568
vn 0.2140 -0.4220 -0.8810
vn 0.2213 -0.4184 -0.8809
vn 0.2210 -0.4186 -0.8809
vn -0.0767 0.1739 -0.9818
vn -0.0764 0.1741 -0.9818
vn -0.4150 0.9094 -0.0281
vn -0.2879 0.6121 -0.7365
vn 0.2282 -0.4150 -0.8807
vn -0.1438 0.2719 0.9515
vn -0.0771 0.1737 -0.9818
vn 0.8786 0.3288 0.3464
vn -0.0299 0.7278 0.6851
vn -0.0281 -0.6424 0.7658
vn -0.0274 -0.6425 0.7658
vn -0.4093 -0.9124 0.0001
vn -0.4067 -0.9136 0.0001
vn 0.1173 0.6424 -0.7573
vn 0.1198 0.6421 -0.7572
vn 0.2527 0.6211 -0.7419
vn 0.2547 0.6206 -0.7416
vn -0.0812 -0.6256 0.7759
vn -0.0968 -0.6172 0.7808
vn -0.0805 -0.6260 0.7757
vn -0.9543 0.0726 -0.2901
vn -0.9513 0.0538 -0.3037
vn -0.9512 0.0535 -0.3040
vn -0.9477 0.0347 -0.3174
vn -0.2643 -0.9644 -0.0102
vn -0.3263 -0.9450 0.0242
vn -0.2614 -0.9651 -0.0118
vn 0.3570 0.9341 -0.0007
vn 0.3311 0.9436 0.0030
vn 0.3574 0.9339 -0.0008
vn 0.1075 0.7103 0.6956
vn 0.0681 0.7198 0.6908
vn 0.0693 0.7195 0.6910
vn -0.1983 -0.9791 -0.0459
vn 0.3830 0.9237 -0.0045
vn 0.1596 0.2646 0.9511
vn 0.1517 0.2683 0.9513
vn 0.1518 0.2682 0.9513
vn -0.4119 -0.9112 0.0001
vn 0.4081 0.9130 -0.0028
vn 0.4115 0.9113 -0.0153
vn 0.4116 0.9112 -0.0156
vn -0.8830 0.3349 0.3288
vn -0.8809 0.3319 0.3374
vn -0.8808 0.3318 0.3378
vn -0.0970 -0.9274 -0.3612
vn -0.0485 -0.9253 -0.3760
vn -0.0489 -0.9254 -0.3759
vn 0.0567 0.9268 0.3713
vn 0.0559 0.9267 0.3716
vn 0.0895 0.9299 0.3568
vn -0.2213 -0.4184 -0.8809
vn -0.2140 -0.4220 -0.8810
vn -0.2210 -0.4186 -0.8809
vn 0.0764 0.1741 -0.9818
vn 0.0767 0.1739 -0.9818
vn 0.4150 0.9094 -0.0281
vn 0.2879 0.6121 -0.7365
vn -0.2282 -0.4150 -0.8807
vn 0.1438 0.2719 0.9515
vn 0.0771 0.1737 -0.9818
vn -0.8786 0.3288 0.3464
vn 0.0299 0.7278 0.6851
usemtl fenster_mat
s 1
f 24/1/1 23/2/2 13/3/3 9/4/4
f 26/5/5 1/6/6 40/7/7 62/8/7
f 28/9/8 27/10/9 14/11/10 16/12/11
f 30/13/12 19/14/13 55/15/14 68/16/15
f 4/17/16 33/18/17 25/19/18 5/20/19
f 25/19/18 2/21/20 1/6/6 26/5/5
f 10/22/21 32/23/22 24/1/1 9/4/4
f 22/24/23 31/25/24 30/13/12 20/26/25
f 27/10/9 6/27/26 17/28/27 29/29/28
f 8/30/29 12/31/30 23/2/2 24/1/1
f 5/20/19 25/19/18 26/5/5 7/32/31
f 7/32/31 26/5/5 62/8/7 35/33/7
f 14/11/10 27/10/9 29/29/28 18/34/32
f 15/35/33 6/27/26 27/10/9 28/9/8
f 20/26/25 30/13/12 68/16/15 57/36/34
f 30/13/12 31/25/24 21/37/35 19/14/13
f 24/1/1 32/23/22 11/38/36 8/30/29
f 25/19/18 33/18/17 3/39/37 2/21/20
f 61/40/38 44/41/39 48/42/40 60/43/41
f 64/44/42 62/8/7 40/7/7 34/45/43
f 66/46/44 51/47/45 49/48/46 65/49/47
f 69/50/48 68/16/15 55/15/14 54/51/49
f 38/52/50 39/53/51 63/54/52 72/55/53
f 63/54/52 64/44/42 34/45/43 36/56/54
f 45/57/55 44/41/39 61/40/38 71/58/56
f 59/59/57 56/60/58 69/50/48 70/61/59
f 65/49/47 67/62/60 52/63/61 41/64/62
f 43/65/63 61/40/38 60/43/41 47/66/64
f 39/53/51 42/67/65 64/44/42 63/54/52
f 42/67/65 35/33/7 62/8/7 64/44/42
f 49/48/46 53/68/66 67/62/60 65/49/47
f 50/69/67 66/46/44 65/49/47 41/64/62
f 56/60/58 57/36/34 68/16/15 69/50/48
f 69/50/48 54/51/49 58/70/68 70/61/59
f 61/40/38 43/65/63 46/71/69 71/58/56
f 63/54/52 36/56/54 37/72/70 72/55/53
f 96/73/71 81/74/72 85/75/73 95/76/74
f 98/77/75 134/78/76 112/79/77 73/80/78
f 100/81/79 88/82/80 86/83/81 99/84/82
f 102/85/83 140/86/84 127/87/85 91/88/86
f 76/89/87 77/90/88 97/91/89 105/92/90
f 97/91/89 98/77/75 73/80/78 74/93/91
f 82/94/92 81/74/72 96/73/71 104/95/93
f 94/96/94 92/97/95 102/85/83 103/98/96
f 99/84/82 101/99/97 89/100/98 78/101/99
f 80/102/100 96/73/71 95/76/74 84/103/101
f 77/90/88 79/104/102 98/77/75 97/91/89
f 79/104/102 107/105/76 134/78/76 98/77/75
f 86/83/81 90/106/103 101/99/97 99/84/82
f 87/107/104 100/81/79 99/84/82 78/101/99
f 92/97/95 129/108/84 140/86/84 102/85/83
f 102/85/83 91/88/86 93/109/105 103/98/96
f 96/73/71 80/102/100 83/110/106 104/95/93
f 97/91/89 74/93/91 75/111/107 105/92/90
f 133/112/108 132/113/109 120/114/110 116/115/111
f 136/116/112 106/117/113 112/79/77 134/78/76
f 138/118/114 137/119/115 121/120/116 123/121/117
f 141/122/118 126/123/119 127/87/85 140/86/84
f 110/124/120 144/125/121 135/126/122 111/127/123
f 135/126/122 108/128/124 106/117/113 136/116/112
f 117/129/125 143/130/126 133/112/108 116/115/111
f 131/131/127 142/132/128 141/122/118 128/133/129
f 137/119/115 113/134/130 124/135/131 139/136/132
f 115/137/133 119/138/134 132/113/109 133/112/108
f 111/127/123 135/126/122 136/116/112 114/139/135
f 114/139/135 136/116/112 134/78/76 107/105/76
f 121/120/116 137/119/115 139/136/132 125/140/136
f 122/141/137 113/134/130 137/119/115 138/118/114
f 128/133/129 141/122/118 140/86/84 129/108/84
f 141/122/118 142/132/128 130/142/138 126/123/119
f 133/112/108 143/130/126 118/143/139 115/137/133
f 135/126/122 144/125/121 109/144/140 108/128/124
f 7/145/141 35/146/142 107/105/142 79/104/143
f 17/147/144 6/148/145 78/149/145 89/150/144
f 40/151/146 1/152/147 73/153/148 112/154/146
f 1/152/147 2/155/149 74/156/150 73/153/148
f 4/157/151 5/158/152 77/90/153 76/89/151
f 33/159/154 4/160/155 76/161/155 105/162/156
f 5/158/152 7/145/141 79/104/143 77/90/153
f 3/163/157 33/159/154 105/162/156 75/164/157
f 12/165/158 8/166/159 80/167/160 84/168/158
f 10/169/161 9/170/162 81/171/163 82/172/161
f 32/173/164 10/169/165 82/172/165 104/174/166
f 8/166/159 11/175/167 83/176/167 80/167/160
f 9/170/162 13/177/168 85/178/168 81/171/163
f 28/179/169 16/180/170 88/181/170 100/182/171
f 6/148/145 15/183/172 87/184/172 78/149/145
f 14/185/173 18/186/174 90/187/174 86/188/175
f 31/189/176 22/190/177 94/191/177 103/192/178
f 19/193/179 21/194/180 93/195/180 91/196/181
f 55/197/182 19/193/179 91/196/181 127/198/182
f 20/199/183 57/200/184 129/108/184 92/97/185
f 22/201/186 20/199/183 92/97/185 94/96/186
f 13/202/187 23/203/188 95/204/189 85/205/187
f 29/206/190 17/207/191 89/208/191 101/209/190
f 16/210/192 14/211/173 86/212/175 88/213/192
f 2/155/149 3/214/193 75/215/193 74/156/150
f 23/203/188 12/216/194 84/217/194 95/204/189
f 15/218/195 28/179/169 100/182/171 87/219/195
f 18/220/196 29/206/190 101/209/190 90/221/196
f 21/222/197 31/189/176 103/192/178 93/223/197
f 11/224/198 32/173/164 104/174/166 83/225/198
f 35/146/142 42/226/199 114/139/200 107/105/142
f 41/227/201 52/228/202 124/229/202 113/230/201
f 34/231/203 40/151/146 112/154/146 106/232/204
f 36/233/205 34/231/203 106/232/204 108/234/206
f 39/235/207 38/236/208 110/124/208 111/127/209
f 38/237/210 72/238/211 144/239/212 110/240/210
f 42/226/199 39/235/207 111/127/209 114/139/200
f 72/238/211 37/241/213 109/242/213 144/239/212
f 43/243/214 47/244/215 119/245/215 115/246/216
f 44/247/217 45/248/218 117/129/218 116/115/219
f 45/249/220 71/250/221 143/251/222 117/252/220
f 46/253/223 43/243/214 115/246/216 118/254/223
f 48/255/224 44/247/217 116/115/219 120/114/224
f 51/256/225 66/257/226 138/258/227 123/259/225
f 50/260/228 41/227/201 113/230/201 122/261/228
f 53/262/229 49/263/230 121/120/231 125/140/229
f 59/264/232 70/265/233 142/266/234 131/267/232
f 58/268/235 54/269/236 126/270/237 130/271/235
f 54/269/236 55/197/182 127/198/182 126/270/237
f 57/200/184 56/272/238 128/133/239 129/108/184
f 56/272/238 59/273/240 131/131/240 128/133/239
f 60/274/241 48/275/242 120/276/242 132/277/243
f 52/278/244 67/279/245 139/280/245 124/281/244
f 49/263/230 51/282/246 123/121/246 121/120/231
f 37/283/247 36/233/205 108/234/206 109/284/247
f 47/285/248 60/274/241 132/277/243 119/286/248
f 66/257/226 50/287/249 122/288/249 138/258/227
f 67/279/245 53/289/250 125/290/250 139/280/245
f 70/265/233 58/291/251 130/292/251 142/266/234
f 71/250/221 46/293/252 118/294/252 143/251/222
