# Blender v2.79 (sub 0) OBJ File: 'street_tiles_3.blend'
# www.blender.org
mtllib ontrack_road_straight.mtl
o road_straight_Plane.002
v 0.000000 0.000000 -3.000000
v 6.000000 0.000000 -3.000000
v 3.000000 0.000000 -3.000000
v 4.500000 0.000000 3.000000
v 1.500000 0.000000 -3.000000
v 4.500000 0.000000 -3.000000
v 0.000000 0.293464 -3.000000
v 6.000000 0.293464 -3.000000
v 3.000000 0.293464 -3.000000
v 1.500000 0.293464 -3.000000
v 4.500000 0.293464 -3.000000
v 0.000000 0.293464 -3.343409
v 6.000000 0.293464 -3.343409
v 3.000000 0.293464 -3.343409
v 1.500000 0.293464 -3.343409
v 4.500000 0.293464 -3.343409
v 6.000000 0.000000 -0.500000
v 6.000000 0.000000 -1.000000
v 6.000000 0.000000 -1.500000
v 6.000000 0.000000 -2.000000
v 6.000000 0.000000 -2.500000
v 3.000000 0.000000 -0.500000
v 3.000000 0.000000 -1.000000
v 3.000000 0.000000 -1.500000
v 3.000000 0.000000 -2.000000
v 3.000000 0.000000 -2.500000
v 0.000000 0.000000 -2.500000
v 0.000000 0.000000 -2.000000
v 0.000000 0.000000 -1.500000
v 0.000000 0.000000 -1.000000
v 0.000000 0.000000 -0.500000
v 1.500000 0.000000 -0.500000
v 1.500000 0.000000 -1.000000
v 1.500000 0.000000 -1.500000
v 1.500000 0.000000 -2.000000
v 1.500000 0.000000 -2.500000
v 4.500000 0.000000 -0.500000
v 4.500000 0.000000 -1.000000
v 4.500000 0.000000 -1.500000
v 4.500000 0.000000 -2.000000
v 4.500000 0.000000 -2.500000
v 0.000000 -0.000000 -3.343409
v 6.000000 -0.000000 -3.343409
v 3.000000 -0.000000 -3.343409
v 1.500000 -0.000000 -3.343409
v 4.500000 -0.000000 -3.343409
v 6.000000 0.000000 -3.000000
v 12.000000 0.000000 -3.000000
v 9.000000 0.000000 -3.000000
v 10.500000 0.000000 3.000000
v 7.500000 0.000000 -3.000000
v 10.500000 0.000000 -3.000000
v 6.000000 0.293464 -3.000000
v 12.000000 0.293464 -3.000000
v 9.000000 0.293464 -3.000000
v 7.500000 0.293464 -3.000000
v 10.500000 0.293464 -3.000000
v 6.000000 0.293464 -3.343409
v 12.000000 0.293464 -3.343409
v 9.000000 0.293464 -3.343409
v 7.500000 0.293464 -3.343409
v 10.500000 0.293464 -3.343409
v 12.000000 0.000000 -0.500000
v 12.000000 0.000000 -1.000000
v 12.000000 0.000000 -1.500000
v 12.000000 0.000000 -2.000000
v 12.000000 0.000000 -2.500000
v 9.000000 0.000000 -0.500000
v 9.000000 0.000000 -1.000000
v 9.000000 0.000000 -1.500000
v 9.000000 0.000000 -2.000000
v 9.000000 0.000000 -2.500000
v 6.000000 0.000000 -2.500000
v 6.000000 0.000000 -2.000000
v 6.000000 0.000000 -1.500000
v 6.000000 0.000000 -1.000000
v 6.000000 0.000000 -0.500000
v 7.500000 0.000000 -0.500000
v 7.500000 0.000000 -1.000000
v 7.500000 0.000000 -1.500000
v 7.500000 0.000000 -2.000000
v 7.500000 0.000000 -2.500000
v 10.500000 0.000000 -0.500000
v 10.500000 0.000000 -1.000000
v 10.500000 0.000000 -1.500000
v 10.500000 0.000000 -2.000000
v 10.500000 0.000000 -2.500000
v 6.000000 -0.000000 -3.343409
v 12.000000 -0.000000 -3.343409
v 9.000000 -0.000000 -3.343409
v 7.500000 -0.000000 -3.343409
v 10.500000 -0.000000 -3.343409
v 0.000000 0.000000 3.000000
v 6.000000 0.000000 3.000000
v 0.000000 0.000000 0.000000
v 6.000000 0.000000 0.000000
v 3.000000 0.000000 3.000000
v 3.000000 0.000000 0.000000
v 4.500000 0.000000 -3.000000
v 6.000000 0.000000 0.000000
v 1.500000 0.000000 3.000000
v 0.000000 0.000000 0.000000
v 4.500000 0.000000 3.000000
v 3.000000 0.000000 0.000000
v 1.500000 0.000000 0.000000
v 4.500000 0.000000 0.000000
v 1.500000 0.000000 0.000000
v 4.500000 0.000000 0.000000
v 0.000000 0.293464 3.000000
v 6.000000 0.293464 3.000000
v 3.000000 0.293464 3.000000
v 1.500000 0.293464 3.000000
v 4.500000 0.293464 3.000000
v 0.000000 0.293464 3.343409
v 6.000000 0.293464 3.343409
v 3.000000 0.293464 3.343409
v 1.500000 0.293464 3.343409
v 4.500000 0.293464 3.343409
v 6.000000 0.000000 0.500000
v 6.000000 0.000000 1.000000
v 6.000000 0.000000 1.500000
v 6.000000 0.000000 2.000000
v 6.000000 0.000000 2.500000
v 3.000000 0.000000 0.500000
v 3.000000 0.000000 1.000000
v 3.000000 0.000000 1.500000
v 3.000000 0.000000 2.000000
v 3.000000 0.000000 2.500000
v 0.000000 0.000000 2.500000
v 0.000000 0.000000 2.000000
v 0.000000 0.000000 1.500000
v 0.000000 0.000000 1.000000
v 0.000000 0.000000 0.500000
v 1.500000 0.000000 0.500000
v 1.500000 0.000000 1.000000
v 1.500000 0.000000 1.500000
v 1.500000 0.000000 2.000000
v 1.500000 0.000000 2.500000
v 4.500000 0.000000 0.500000
v 4.500000 0.000000 1.000000
v 4.500000 0.000000 1.500000
v 4.500000 0.000000 2.000000
v 4.500000 0.000000 2.500000
v 0.000000 -0.000000 3.343409
v 6.000000 -0.000000 3.343409
v 3.000000 -0.000000 3.343409
v 1.500000 -0.000000 3.343409
v 4.500000 -0.000000 3.343409
v 6.000000 0.000000 3.000000
v 12.000000 0.000000 3.000000
v 6.000000 0.000000 0.000000
v 12.000000 0.000000 0.000000
v 9.000000 0.000000 3.000000
v 9.000000 0.000000 0.000000
v 10.500000 0.000000 -3.000000
v 12.000000 0.000000 0.000000
v 7.500000 0.000000 3.000000
v 6.000000 0.000000 0.000000
v 10.500000 0.000000 3.000000
v 9.000000 0.000000 0.000000
v 7.500000 0.000000 0.000000
v 10.500000 0.000000 0.000000
v 7.500000 0.000000 0.000000
v 10.500000 0.000000 0.000000
v 6.000000 0.293464 3.000000
v 12.000000 0.293464 3.000000
v 9.000000 0.293464 3.000000
v 7.500000 0.293464 3.000000
v 10.500000 0.293464 3.000000
v 6.000000 0.293464 3.343409
v 12.000000 0.293464 3.343409
v 9.000000 0.293464 3.343409
v 7.500000 0.293464 3.343409
v 10.500000 0.293464 3.343409
v 12.000000 0.000000 0.500000
v 12.000000 0.000000 1.000000
v 12.000000 0.000000 1.500000
v 12.000000 0.000000 2.000000
v 12.000000 0.000000 2.500000
v 9.000000 0.000000 0.500000
v 9.000000 0.000000 1.000000
v 9.000000 0.000000 1.500000
v 9.000000 0.000000 2.000000
v 9.000000 0.000000 2.500000
v 6.000000 0.000000 2.500000
v 6.000000 0.000000 2.000000
v 6.000000 0.000000 1.500000
v 6.000000 0.000000 1.000000
v 6.000000 0.000000 0.500000
v 7.500000 0.000000 0.500000
v 7.500000 0.000000 1.000000
v 7.500000 0.000000 1.500000
v 7.500000 0.000000 2.000000
v 7.500000 0.000000 2.500000
v 10.500000 0.000000 0.500000
v 10.500000 0.000000 1.000000
v 10.500000 0.000000 1.500000
v 10.500000 0.000000 2.000000
v 10.500000 0.000000 2.500000
v 6.000000 -0.000000 3.343409
v 12.000000 -0.000000 3.343409
v 9.000000 -0.000000 3.343409
v 7.500000 -0.000000 3.343409
v 10.500000 -0.000000 3.343409
vn 0.0000 1.0000 0.0000
vn 0.0000 0.0000 1.0000
vn 0.0000 0.0000 -1.0000
usemtl None
s off
f 41//1 21//1 2//1 6//1
f 36//1 26//1 3//1 5//1
f 27//1 36//1 5//1 1//1
f 26//1 41//1 6//1 3//1
f 11//1 8//1 13//1 16//1
f 5//2 3//2 9//2 10//2
f 6//2 2//2 8//2 11//2
f 1//2 5//2 10//2 7//2
f 3//2 6//2 11//2 9//2
f 7//1 10//1 15//1 12//1
f 10//1 9//1 14//1 15//1
f 9//1 11//1 16//1 14//1
f 104//1 108//1 37//1 22//1
f 22//1 37//1 38//1 23//1
f 23//1 38//1 39//1 24//1
f 24//1 39//1 40//1 25//1
f 25//1 40//1 41//1 26//1
f 102//1 107//1 32//1 31//1
f 31//1 32//1 33//1 30//1
f 30//1 33//1 34//1 29//1
f 29//1 34//1 35//1 28//1
f 28//1 35//1 36//1 27//1
f 107//1 104//1 22//1 32//1
f 32//1 22//1 23//1 33//1
f 33//1 23//1 24//1 34//1
f 34//1 24//1 25//1 35//1
f 35//1 25//1 26//1 36//1
f 108//1 100//1 17//1 37//1
f 37//1 17//1 18//1 38//1
f 38//1 18//1 19//1 39//1
f 39//1 19//1 20//1 40//1
f 40//1 20//1 21//1 41//1
f 15//3 14//3 44//3 45//3
f 12//3 15//3 45//3 42//3
f 16//3 13//3 43//3 46//3
f 14//3 16//3 46//3 44//3
f 87//1 67//1 48//1 52//1
f 82//1 72//1 49//1 51//1
f 73//1 82//1 51//1 47//1
f 72//1 87//1 52//1 49//1
f 57//1 54//1 59//1 62//1
f 51//2 49//2 55//2 56//2
f 52//2 48//2 54//2 57//2
f 47//2 51//2 56//2 53//2
f 49//2 52//2 57//2 55//2
f 53//1 56//1 61//1 58//1
f 56//1 55//1 60//1 61//1
f 55//1 57//1 62//1 60//1
f 160//1 164//1 83//1 68//1
f 68//1 83//1 84//1 69//1
f 69//1 84//1 85//1 70//1
f 70//1 85//1 86//1 71//1
f 71//1 86//1 87//1 72//1
f 158//1 163//1 78//1 77//1
f 77//1 78//1 79//1 76//1
f 76//1 79//1 80//1 75//1
f 75//1 80//1 81//1 74//1
f 74//1 81//1 82//1 73//1
f 163//1 160//1 68//1 78//1
f 78//1 68//1 69//1 79//1
f 79//1 69//1 70//1 80//1
f 80//1 70//1 71//1 81//1
f 81//1 71//1 72//1 82//1
f 164//1 156//1 63//1 83//1
f 83//1 63//1 64//1 84//1
f 84//1 64//1 65//1 85//1
f 85//1 65//1 66//1 86//1
f 86//1 66//1 67//1 87//1
f 61//3 60//3 90//3 91//3
f 58//3 61//3 91//3 88//3
f 62//3 59//3 89//3 92//3
f 60//3 62//3 92//3 90//3
f 143//1 103//1 94//1 123//1
f 138//1 101//1 97//1 128//1
f 129//1 93//1 101//1 138//1
f 95//2 102//2 107//2 105//2
f 105//2 107//2 104//2 98//2
f 128//1 97//1 103//1 143//1
f 98//2 104//2 108//2 106//2
f 106//2 108//2 100//2 96//2
f 113//1 118//1 115//1 110//1
f 101//3 112//3 111//3 97//3
f 103//3 113//3 110//3 94//3
f 93//3 109//3 112//3 101//3
f 97//3 111//3 113//3 103//3
f 109//1 114//1 117//1 112//1
f 112//1 117//1 116//1 111//1
f 111//1 116//1 118//1 113//1
f 104//1 124//1 139//1 108//1
f 124//1 125//1 140//1 139//1
f 125//1 126//1 141//1 140//1
f 126//1 127//1 142//1 141//1
f 127//1 128//1 143//1 142//1
f 102//1 133//1 134//1 107//1
f 133//1 132//1 135//1 134//1
f 132//1 131//1 136//1 135//1
f 131//1 130//1 137//1 136//1
f 130//1 129//1 138//1 137//1
f 107//1 134//1 124//1 104//1
f 134//1 135//1 125//1 124//1
f 135//1 136//1 126//1 125//1
f 136//1 137//1 127//1 126//1
f 137//1 138//1 128//1 127//1
f 108//1 139//1 119//1 100//1
f 139//1 140//1 120//1 119//1
f 140//1 141//1 121//1 120//1
f 141//1 142//1 122//1 121//1
f 142//1 143//1 123//1 122//1
f 117//2 147//2 146//2 116//2
f 114//2 144//2 147//2 117//2
f 118//2 148//2 145//2 115//2
f 116//2 146//2 148//2 118//2
f 199//1 159//1 150//1 179//1
f 194//1 157//1 153//1 184//1
f 185//1 149//1 157//1 194//1
f 151//2 158//2 163//2 161//2
f 161//2 163//2 160//2 154//2
f 184//1 153//1 159//1 199//1
f 154//2 160//2 164//2 162//2
f 162//2 164//2 156//2 152//2
f 169//1 174//1 171//1 166//1
f 157//3 168//3 167//3 153//3
f 159//3 169//3 166//3 150//3
f 149//3 165//3 168//3 157//3
f 153//3 167//3 169//3 159//3
f 165//1 170//1 173//1 168//1
f 168//1 173//1 172//1 167//1
f 167//1 172//1 174//1 169//1
f 160//1 180//1 195//1 164//1
f 180//1 181//1 196//1 195//1
f 181//1 182//1 197//1 196//1
f 182//1 183//1 198//1 197//1
f 183//1 184//1 199//1 198//1
f 158//1 189//1 190//1 163//1
f 189//1 188//1 191//1 190//1
f 188//1 187//1 192//1 191//1
f 187//1 186//1 193//1 192//1
f 186//1 185//1 194//1 193//1
f 163//1 190//1 180//1 160//1
f 190//1 191//1 181//1 180//1
f 191//1 192//1 182//1 181//1
f 192//1 193//1 183//1 182//1
f 193//1 194//1 184//1 183//1
f 164//1 195//1 175//1 156//1
f 195//1 196//1 176//1 175//1
f 196//1 197//1 177//1 176//1
f 197//1 198//1 178//1 177//1
f 198//1 199//1 179//1 178//1
f 173//2 203//2 202//2 172//2
f 170//2 200//2 203//2 173//2
f 174//2 204//2 201//2 171//2
f 172//2 202//2 204//2 174//2
