# Blender v2.79 (sub 0) OBJ File: 'street_tiles_3.blend'
# www.blender.org
mtllib ontrack_road_45er.mtl
o road_straigh_90_Plane.005
v 0.000000 0.000000 -3.000000
v 4.698922 0.000000 -3.934674
v 2.395490 0.000000 -3.235935
v 5.306077 0.000000 2.212916
v 1.203540 0.000000 -3.059126
v 3.564369 0.000000 -3.528724
v 0.000000 0.293464 -3.000000
v 4.698922 0.293464 -3.934674
v 2.395490 0.293464 -3.235935
v 1.203540 0.293464 -3.059126
v 3.564369 0.293464 -3.528724
v 0.000000 0.293464 -3.343409
v 4.567505 0.293464 -4.251943
v 2.328494 0.293464 -3.572745
v 1.169880 0.293464 -3.400881
v 3.464683 0.293464 -3.857346
v 5.655631 0.000000 -1.624975
v 5.464289 0.000000 -2.086915
v 5.272947 0.000000 -2.548855
v 5.081605 0.000000 -3.010795
v 4.890264 0.000000 -3.472734
v 2.883215 0.000000 -0.783973
v 2.785670 0.000000 -1.274365
v 2.688125 0.000000 -1.764757
v 2.590580 0.000000 -2.255150
v 2.493035 0.000000 -2.745543
v 0.000000 0.000000 -2.500000
v 0.000000 0.000000 -2.000000
v 0.000000 0.000000 -1.500000
v 0.000000 0.000000 -1.000000
v 0.000000 0.000000 -0.500000
v 1.448583 0.000000 -0.571164
v 1.399574 0.000000 -1.068757
v 1.350566 0.000000 -1.566349
v 1.301557 0.000000 -2.063942
v 1.252549 0.000000 -2.561534
v 4.290081 0.000000 -1.136374
v 4.144938 0.000000 -1.614843
v 3.999796 0.000000 -2.093313
v 3.854654 0.000000 -2.571784
v 3.709511 0.000000 -3.050254
v 0.000000 -0.000000 -3.343409
v 4.567505 -0.000000 -4.251943
v 2.328494 -0.000000 -3.572745
v 1.169880 -0.000000 -3.400881
v 3.464683 -0.000000 -3.857346
v 4.698922 0.000000 -3.934674
v 8.682475 0.000000 -6.596399
v 6.821777 0.000000 -5.069364
v 11.595996 0.000000 -1.149115
v 5.788221 0.000000 -4.449874
v 7.789636 0.000000 -5.787176
v 4.698922 0.293464 -3.934674
v 8.682475 0.293464 -6.596399
v 6.821777 0.293464 -5.069364
v 5.788221 0.293464 -4.449874
v 7.789636 0.293464 -5.787176
v 4.567505 0.293464 -4.251943
v 8.439649 0.293464 -6.839226
v 6.630990 0.293464 -5.354897
v 5.626340 0.293464 -4.752733
v 7.571780 0.293464 -6.052635
v 10.450242 0.000000 -4.828632
v 10.096688 0.000000 -5.182186
v 9.743135 0.000000 -5.535739
v 9.389582 0.000000 -5.889293
v 9.036029 0.000000 -6.242846
v 8.210703 0.000000 -2.990689
v 7.932918 0.000000 -3.406425
v 7.655133 0.000000 -3.822159
v 7.377347 0.000000 -4.237894
v 7.099562 0.000000 -4.653629
v 4.890264 0.000000 -3.472734
v 5.081605 0.000000 -3.010795
v 5.272947 0.000000 -2.548855
v 5.464289 0.000000 -2.086915
v 5.655631 0.000000 -1.624975
v 6.966713 0.000000 -2.245071
v 6.731015 0.000000 -2.686032
v 6.495317 0.000000 -3.126992
v 6.259618 0.000000 -3.567953
v 6.023920 0.000000 -4.008914
v 9.375619 0.000000 -3.854650
v 9.058423 0.000000 -4.241156
v 8.741226 0.000000 -4.627661
v 8.424029 0.000000 -5.014166
v 8.106833 0.000000 -5.400671
v 4.567505 -0.000000 -4.251943
v 8.439649 -0.000000 -6.839226
v 6.630990 -0.000000 -5.354897
v 5.626340 -0.000000 -4.752733
v 7.571780 -0.000000 -6.052635
v 0.000000 0.000000 2.999999
v 6.995022 0.000000 1.608602
v 0.000000 0.000000 0.000000
v 5.846972 0.000000 -1.163035
v 3.566031 0.000000 2.648774
v 2.980761 0.000000 -0.293580
v 3.564369 0.000000 -3.528724
v 5.846972 0.000000 -1.163035
v 1.791643 0.000000 2.911981
v 0.000000 0.000000 0.000000
v 5.306077 0.000000 2.212916
v 2.980761 0.000000 -0.293580
v 1.497592 0.000000 -0.073572
v 4.435223 0.000000 -0.657903
v 1.497592 0.000000 -0.073572
v 4.435223 0.000000 -0.657903
v 0.000000 0.293464 2.999999
v 6.995022 0.293464 1.608602
v 3.566031 0.293464 2.648774
v 1.791643 0.293464 2.911981
v 5.306077 0.293464 2.212916
v 0.000000 0.293464 3.343410
v 7.126440 0.293464 1.925872
v 3.633027 0.293464 2.985587
v 1.825303 0.293464 3.253737
v 5.405764 0.293464 2.541541
v 6.038314 0.000000 -0.701096
v 6.229656 0.000000 -0.239157
v 6.420997 0.000000 0.222783
v 6.612339 0.000000 0.684723
v 6.803681 0.000000 1.146663
v 3.078306 0.000000 0.196813
v 3.175851 0.000000 0.687204
v 3.273396 0.000000 1.177598
v 3.370941 0.000000 1.667991
v 3.468486 0.000000 2.158383
v 0.000000 0.000000 2.499999
v 0.000000 0.000000 1.999999
v 0.000000 0.000000 1.499999
v 0.000000 0.000000 0.999999
v 0.000000 0.000000 0.500000
v 1.546600 0.000000 0.424021
v 1.595609 0.000000 0.921611
v 1.644617 0.000000 1.419204
v 1.693626 0.000000 1.916797
v 1.742634 0.000000 2.414390
v 4.580365 0.000000 -0.179433
v 4.725507 0.000000 0.299036
v 4.870650 0.000000 0.777507
v 5.015792 0.000000 1.255977
v 5.160934 0.000000 1.734447
v 0.000000 -0.000000 3.343410
v 7.126440 -0.000000 1.925872
v 3.633027 -0.000000 2.985587
v 1.825303 -0.000000 3.253737
v 5.405764 -0.000000 2.541541
v 6.995022 0.000000 1.608602
v 12.925116 0.000000 -2.353759
v 5.846972 0.000000 -1.163035
v 10.803796 0.000000 -4.475079
v 10.155198 0.000000 -0.080547
v 8.488488 0.000000 -2.574955
v 7.789636 0.000000 -5.787176
v 10.803796 0.000000 -4.475079
v 8.616601 0.000000 0.841653
v 5.846972 0.000000 -1.163035
v 11.595996 0.000000 -1.149115
v 8.488488 0.000000 -2.574955
v 7.202412 0.000000 -1.804111
v 9.692816 0.000000 -3.468145
v 7.202412 0.000000 -1.804111
v 9.692816 0.000000 -3.468145
v 6.995022 0.293464 1.608602
v 12.925116 0.293464 -2.353759
v 10.155198 0.293464 -0.080547
v 8.616601 0.293464 0.841653
v 11.595996 0.293464 -1.149115
v 7.126440 0.293464 1.925872
v 13.167943 0.293464 -2.110931
v 10.345987 0.293464 0.204988
v 8.778484 0.293464 1.144513
v 11.813853 0.293464 -0.883655
v 11.157349 0.000000 -4.121526
v 11.510901 0.000000 -3.767973
v 11.864455 0.000000 -3.414419
v 12.218008 0.000000 -3.060866
v 12.571562 0.000000 -2.707313
v 8.766273 0.000000 -2.159220
v 9.044058 0.000000 -1.743486
v 9.321843 0.000000 -1.327751
v 9.599627 0.000000 -0.912017
v 9.877413 0.000000 -0.496282
v 6.803681 0.000000 1.146663
v 6.612339 0.000000 0.684723
v 6.420997 0.000000 0.222783
v 6.229656 0.000000 -0.239157
v 6.038314 0.000000 -0.701096
v 7.438110 0.000000 -1.363150
v 7.673808 0.000000 -0.922191
v 7.909506 0.000000 -0.481230
v 8.145205 0.000000 -0.040269
v 8.380903 0.000000 0.400692
v 10.010013 0.000000 -3.081640
v 10.327209 0.000000 -2.695135
v 10.644405 0.000000 -2.308630
v 10.961602 0.000000 -1.922125
v 11.278799 0.000000 -1.535620
v 7.126440 -0.000000 1.925872
v 13.167943 -0.000000 -2.110931
v 10.345987 -0.000000 0.204988
v 8.778484 -0.000000 1.144513
v 11.813853 -0.000000 -0.883655
vn 0.0000 1.0000 0.0000
vn 0.1467 0.0000 0.9892
vn 0.3369 0.0000 0.9415
vn 0.0491 0.0000 0.9988
vn 0.2430 0.0000 0.9700
vn -0.1467 0.0000 -0.9892
vn -0.0491 0.0000 -0.9988
vn -0.3369 0.0000 -0.9415
vn -0.2430 0.0000 -0.9700
vn 0.5141 0.0000 0.8577
vn 0.6716 0.0000 0.7410
vn 0.4276 0.0000 0.9040
vn 0.5957 0.0000 0.8032
vn -0.5141 0.0000 -0.8577
vn -0.4276 0.0000 -0.9040
vn -0.6716 0.0000 -0.7410
vn -0.5957 0.0000 -0.8032
vn 0.0000 0.0000 1.0000
usemtl None
s off
f 41//1 21//1 2//1 6//1
f 36//1 26//1 3//1 5//1
f 27//1 36//1 5//1 1//1
f 26//1 41//1 6//1 3//1
f 11//1 8//1 13//1 16//1
f 5//2 3//2 9//2 10//2
f 6//3 2//3 8//3 11//3
f 1//4 5//4 10//4 7//4
f 3//5 6//5 11//5 9//5
f 7//1 10//1 15//1 12//1
f 10//1 9//1 14//1 15//1
f 9//1 11//1 16//1 14//1
f 104//1 108//1 37//1 22//1
f 22//1 37//1 38//1 23//1
f 23//1 38//1 39//1 24//1
f 24//1 39//1 40//1 25//1
f 25//1 40//1 41//1 26//1
f 102//1 107//1 32//1 31//1
f 31//1 32//1 33//1 30//1
f 30//1 33//1 34//1 29//1
f 29//1 34//1 35//1 28//1
f 28//1 35//1 36//1 27//1
f 107//1 104//1 22//1 32//1
f 32//1 22//1 23//1 33//1
f 33//1 23//1 24//1 34//1
f 34//1 24//1 25//1 35//1
f 35//1 25//1 26//1 36//1
f 108//1 100//1 17//1 37//1
f 37//1 17//1 18//1 38//1
f 38//1 18//1 19//1 39//1
f 39//1 19//1 20//1 40//1
f 40//1 20//1 21//1 41//1
f 15//6 14//6 44//6 45//6
f 12//7 15//7 45//7 42//7
f 16//8 13//8 43//8 46//8
f 14//9 16//9 46//9 44//9
f 87//1 67//1 48//1 52//1
f 82//1 72//1 49//1 51//1
f 73//1 82//1 51//1 47//1
f 72//1 87//1 52//1 49//1
f 57//1 54//1 59//1 62//1
f 51//10 49//10 55//10 56//10
f 52//11 48//11 54//11 57//11
f 47//12 51//12 56//12 53//12
f 49//13 52//13 57//13 55//13
f 53//1 56//1 61//1 58//1
f 56//1 55//1 60//1 61//1
f 55//1 57//1 62//1 60//1
f 160//1 164//1 83//1 68//1
f 68//1 83//1 84//1 69//1
f 69//1 84//1 85//1 70//1
f 70//1 85//1 86//1 71//1
f 71//1 86//1 87//1 72//1
f 158//1 163//1 78//1 77//1
f 77//1 78//1 79//1 76//1
f 76//1 79//1 80//1 75//1
f 75//1 80//1 81//1 74//1
f 74//1 81//1 82//1 73//1
f 163//1 160//1 68//1 78//1
f 78//1 68//1 69//1 79//1
f 79//1 69//1 70//1 80//1
f 80//1 70//1 71//1 81//1
f 81//1 71//1 72//1 82//1
f 164//1 156//1 63//1 83//1
f 83//1 63//1 64//1 84//1
f 84//1 64//1 65//1 85//1
f 85//1 65//1 66//1 86//1
f 86//1 66//1 67//1 87//1
f 61//14 60//14 90//14 91//14
f 58//15 61//15 91//15 88//15
f 62//16 59//16 89//16 92//16
f 60//17 62//17 92//17 90//17
f 143//1 103//1 94//1 123//1
f 138//1 101//1 97//1 128//1
f 129//1 93//1 101//1 138//1
f 95//18 102//18 107//18 105//18
f 105//18 107//18 104//18 98//18
f 128//1 97//1 103//1 143//1
f 98//18 104//18 108//18 106//18
f 106//18 108//18 100//18 96//18
f 113//1 118//1 115//1 110//1
f 101//6 112//6 111//6 97//6
f 103//8 113//8 110//8 94//8
f 93//7 109//7 112//7 101//7
f 97//9 111//9 113//9 103//9
f 109//1 114//1 117//1 112//1
f 112//1 117//1 116//1 111//1
f 111//1 116//1 118//1 113//1
f 104//1 124//1 139//1 108//1
f 124//1 125//1 140//1 139//1
f 125//1 126//1 141//1 140//1
f 126//1 127//1 142//1 141//1
f 127//1 128//1 143//1 142//1
f 102//1 133//1 134//1 107//1
f 133//1 132//1 135//1 134//1
f 132//1 131//1 136//1 135//1
f 131//1 130//1 137//1 136//1
f 130//1 129//1 138//1 137//1
f 107//1 134//1 124//1 104//1
f 134//1 135//1 125//1 124//1
f 135//1 136//1 126//1 125//1
f 136//1 137//1 127//1 126//1
f 137//1 138//1 128//1 127//1
f 108//1 139//1 119//1 100//1
f 139//1 140//1 120//1 119//1
f 140//1 141//1 121//1 120//1
f 141//1 142//1 122//1 121//1
f 142//1 143//1 123//1 122//1
f 117//2 147//2 146//2 116//2
f 114//4 144//4 147//4 117//4
f 118//3 148//3 145//3 115//3
f 116//5 146//5 148//5 118//5
f 199//1 159//1 150//1 179//1
f 194//1 157//1 153//1 184//1
f 185//1 149//1 157//1 194//1
f 151//18 158//18 163//18 161//18
f 161//18 163//18 160//18 154//18
f 184//1 153//1 159//1 199//1
f 154//18 160//18 164//18 162//18
f 162//18 164//18 156//18 152//18
f 169//1 174//1 171//1 166//1
f 157//14 168//14 167//14 153//14
f 159//16 169//16 166//16 150//16
f 149//15 165//15 168//15 157//15
f 153//17 167//17 169//17 159//17
f 165//1 170//1 173//1 168//1
f 168//1 173//1 172//1 167//1
f 167//1 172//1 174//1 169//1
f 160//1 180//1 195//1 164//1
f 180//1 181//1 196//1 195//1
f 181//1 182//1 197//1 196//1
f 182//1 183//1 198//1 197//1
f 183//1 184//1 199//1 198//1
f 158//1 189//1 190//1 163//1
f 189//1 188//1 191//1 190//1
f 188//1 187//1 192//1 191//1
f 187//1 186//1 193//1 192//1
f 186//1 185//1 194//1 193//1
f 163//1 190//1 180//1 160//1
f 190//1 191//1 181//1 180//1
f 191//1 192//1 182//1 181//1
f 192//1 193//1 183//1 182//1
f 193//1 194//1 184//1 183//1
f 164//1 195//1 175//1 156//1
f 195//1 196//1 176//1 175//1
f 196//1 197//1 177//1 176//1
f 197//1 198//1 178//1 177//1
f 198//1 199//1 179//1 178//1
f 173//10 203//10 202//10 172//10
f 170//12 200//12 203//12 173//12
f 174//11 204//11 201//11 171//11
f 172//13 202//13 204//13 174//13
