# Blender v2.79 (sub 0) OBJ File: 'street_tiles_3.blend'
# www.blender.org
mtllib ontrack_road_90er.mtl
o road_straight_45_Plane.003
v 0.000000 0.000000 -3.000000
v 3.280577 0.000000 -4.358860
v 1.775436 0.000000 -3.353156
v 5.910954 0.000000 1.206931
v 0.905109 0.000000 -3.089146
v 2.577533 0.000000 -3.781886
v 0.000000 0.293464 -3.000000
v 3.280577 0.293464 -4.358860
v 1.775436 0.293464 -3.353156
v 0.905109 0.293464 -3.089146
v 2.577533 0.293464 -3.781886
v 0.000000 0.293464 -3.343409
v 3.037751 0.293464 -4.601686
v 1.644019 0.293464 -3.670424
v 0.838114 0.293464 -3.425956
v 2.386746 0.293464 -4.067420
v 5.048344 0.000000 -2.591093
v 4.694791 0.000000 -2.944646
v 4.341238 0.000000 -3.298200
v 3.987684 0.000000 -3.651753
v 3.634131 0.000000 -4.005306
v 2.732145 0.000000 -1.043458
v 2.540803 0.000000 -1.505397
v 2.349461 0.000000 -1.967337
v 2.158119 0.000000 -2.429277
v 1.966778 0.000000 -2.891216
v 0.000000 0.000000 -2.500000
v 0.000000 0.000000 -2.000000
v 0.000000 0.000000 -1.500000
v 0.000000 0.000000 -1.000000
v 0.000000 0.000000 -0.500000
v 1.392835 0.000000 -0.637183
v 1.295290 0.000000 -1.127575
v 1.197745 0.000000 -1.617968
v 1.100200 0.000000 -2.108360
v 1.002654 0.000000 -2.598753
v 3.966459 0.000000 -1.703212
v 3.688674 0.000000 -2.118947
v 3.410889 0.000000 -2.534682
v 3.133104 0.000000 -2.950417
v 2.855318 0.000000 -3.366151
v 0.000000 -0.000000 -3.343409
v 3.037751 -0.000000 -4.601686
v 1.644019 -0.000000 -3.670424
v 0.838114 -0.000000 -3.425956
v 2.386746 -0.000000 -4.067420
v 3.280577 0.000000 -4.358860
v 4.639437 0.000000 -7.639437
v 4.286281 0.000000 -5.864001
v 10.435003 0.000000 -5.563787
v 3.857551 0.000000 -5.061904
v 4.550292 0.000000 -6.734328
v 3.280577 0.293464 -4.358860
v 4.639437 0.293464 -7.639437
v 4.286281 0.293464 -5.864001
v 3.857551 0.293464 -5.061904
v 4.550292 0.293464 -6.734328
v 3.037751 0.293464 -4.601686
v 4.296029 0.293464 -7.639437
v 3.969013 0.293464 -5.995418
v 3.572017 0.293464 -5.252692
v 4.213482 0.293464 -6.801324
v 7.139437 0.000000 -7.639438
v 6.639437 0.000000 -7.639438
v 6.139437 0.000000 -7.639438
v 5.639437 0.000000 -7.639438
v 5.139437 0.000000 -7.639437
v 6.595980 0.000000 -4.907293
v 6.134040 0.000000 -5.098635
v 5.672100 0.000000 -5.289976
v 5.210160 0.000000 -5.481318
v 4.748221 0.000000 -5.672660
v 3.634131 0.000000 -4.005306
v 3.987684 0.000000 -3.651753
v 4.341238 0.000000 -3.298200
v 4.694791 0.000000 -2.944646
v 5.048344 0.000000 -2.591093
v 5.936225 0.000000 -3.672979
v 5.520491 0.000000 -3.950764
v 5.104756 0.000000 -4.228549
v 4.689021 0.000000 -4.506334
v 4.273286 0.000000 -4.784119
v 7.002255 0.000000 -6.246603
v 6.511862 0.000000 -6.344148
v 6.021470 0.000000 -6.441693
v 5.531077 0.000000 -6.539238
v 5.040685 0.000000 -6.636783
v 3.037751 -0.000000 -4.601686
v 4.296029 -0.000000 -7.639437
v 3.969013 -0.000000 -5.995418
v 3.572017 -0.000000 -5.252692
v 4.213482 -0.000000 -6.801324
v 0.000000 0.000000 3.000000
v 7.523218 0.000000 -0.116220
v 0.000000 0.000000 0.000000
v 5.401898 0.000000 -2.237539
v 4.071537 0.000000 2.190120
v 2.923486 0.000000 -0.581518
v 2.577533 0.000000 -3.781886
v 5.401898 0.000000 -2.237539
v 2.075651 0.000000 2.795565
v 0.000000 0.000000 0.000000
v 5.910954 0.000000 1.206931
v 2.923486 0.000000 -0.581518
v 1.490380 0.000000 -0.146790
v 4.244244 0.000000 -1.287477
v 1.490380 0.000000 -0.146790
v 4.244244 0.000000 -1.287477
v 0.000000 0.293464 3.000000
v 7.523218 0.293464 -0.116220
v 4.071537 0.293464 2.190120
v 2.075651 0.293464 2.795565
v 5.910954 0.293464 1.206931
v 0.000000 0.293464 3.343408
v 7.766044 0.293464 0.126607
v 4.202953 0.293464 2.507389
v 2.142647 0.293464 3.132375
v 6.101742 0.293464 1.492465
v 5.755451 0.000000 -1.883986
v 6.109004 0.000000 -1.530433
v 6.462558 0.000000 -1.176879
v 6.816111 0.000000 -0.823326
v 7.169664 0.000000 -0.469773
v 3.114828 0.000000 -0.119578
v 3.306170 0.000000 0.342361
v 3.497511 0.000000 0.804301
v 3.688853 0.000000 1.266241
v 3.880195 0.000000 1.728180
v 0.000000 0.000000 2.500000
v 0.000000 0.000000 2.000000
v 0.000000 0.000000 1.500000
v 0.000000 0.000000 1.000000
v 0.000000 0.000000 0.500000
v 1.587925 0.000000 0.343602
v 1.685470 0.000000 0.833995
v 1.783016 0.000000 1.324387
v 1.880561 0.000000 1.814780
v 1.978106 0.000000 2.305172
v 4.522029 0.000000 -0.871743
v 4.799814 0.000000 -0.456008
v 5.077599 0.000000 -0.040274
v 5.355384 0.000000 0.375461
v 5.633169 0.000000 0.791196
v 0.000000 -0.000000 3.343408
v 7.766044 -0.000000 0.126607
v 4.202953 -0.000000 2.507389
v 2.142647 -0.000000 3.132375
v 6.101742 -0.000000 1.492465
v 7.523218 0.000000 -0.116220
v 10.639437 0.000000 -7.639438
v 5.401898 0.000000 -2.237539
v 7.639437 0.000000 -7.639438
v 9.829557 0.000000 -3.567901
v 7.057920 0.000000 -4.715951
v 4.550292 0.000000 -6.734328
v 7.639437 0.000000 -7.639438
v 8.846369 0.000000 -1.728483
v 5.401898 0.000000 -2.237539
v 10.435003 0.000000 -5.563787
v 7.057920 0.000000 -4.715951
v 6.351960 0.000000 -3.395194
v 7.492648 0.000000 -6.149057
v 6.351960 0.000000 -3.395194
v 7.492648 0.000000 -6.149057
v 7.523218 0.293464 -0.116220
v 10.639437 0.293464 -7.639438
v 9.829557 0.293464 -3.567901
v 8.846369 0.293464 -1.728483
v 10.435003 0.293464 -5.563787
v 7.766044 0.293464 0.126607
v 10.982845 0.293464 -7.639438
v 10.146826 0.293464 -3.436484
v 9.131903 0.293464 -1.537696
v 10.771813 0.293464 -5.496791
v 8.139437 0.000000 -7.639438
v 8.639437 0.000000 -7.639438
v 9.139437 0.000000 -7.639438
v 9.639437 0.000000 -7.639438
v 10.139437 0.000000 -7.639438
v 7.519859 0.000000 -4.524610
v 7.981799 0.000000 -4.333268
v 8.443738 0.000000 -4.141926
v 8.905678 0.000000 -3.950584
v 9.367618 0.000000 -3.759243
v 7.169664 0.000000 -0.469773
v 6.816111 0.000000 -0.823326
v 6.462558 0.000000 -1.176879
v 6.109004 0.000000 -1.530433
v 5.755451 0.000000 -1.883986
v 6.767694 0.000000 -3.117409
v 7.183429 0.000000 -2.839624
v 7.599164 0.000000 -2.561839
v 8.014899 0.000000 -2.284053
v 8.430634 0.000000 -2.006269
v 7.983040 0.000000 -6.051513
v 8.473433 0.000000 -5.953968
v 8.963825 0.000000 -5.856422
v 9.454218 0.000000 -5.758877
v 9.944611 0.000000 -5.661332
v 7.766044 -0.000000 0.126607
v 10.982845 -0.000000 -7.639438
v 10.146826 -0.000000 -3.436484
v 9.131903 -0.000000 -1.537696
v 10.771813 -0.000000 -5.496791
vn 0.0000 1.0000 0.0000
vn 0.2903 0.0000 0.9569
vn 0.6344 0.0000 0.7730
vn 0.0980 0.0000 0.9952
vn 0.4714 0.0000 0.8819
vn -0.2903 0.0000 -0.9569
vn -0.0980 0.0000 -0.9952
vn -0.6344 0.0000 -0.7730
vn -0.4714 0.0000 -0.8819
vn 0.8819 0.0000 0.4714
vn 0.9952 0.0000 0.0980
vn 0.7730 0.0000 0.6344
vn 0.9569 0.0000 0.2903
vn -0.8819 0.0000 -0.4714
vn -0.7730 0.0000 -0.6344
vn -0.9952 0.0000 -0.0980
vn -0.9569 0.0000 -0.2903
vn 0.0000 0.0000 1.0000
usemtl None
s off
f 41//1 21//1 2//1 6//1
f 36//1 26//1 3//1 5//1
f 27//1 36//1 5//1 1//1
f 26//1 41//1 6//1 3//1
f 11//1 8//1 13//1 16//1
f 5//2 3//2 9//2 10//2
f 6//3 2//3 8//3 11//3
f 1//4 5//4 10//4 7//4
f 3//5 6//5 11//5 9//5
f 7//1 10//1 15//1 12//1
f 10//1 9//1 14//1 15//1
f 9//1 11//1 16//1 14//1
f 104//1 108//1 37//1 22//1
f 22//1 37//1 38//1 23//1
f 23//1 38//1 39//1 24//1
f 24//1 39//1 40//1 25//1
f 25//1 40//1 41//1 26//1
f 102//1 107//1 32//1 31//1
f 31//1 32//1 33//1 30//1
f 30//1 33//1 34//1 29//1
f 29//1 34//1 35//1 28//1
f 28//1 35//1 36//1 27//1
f 107//1 104//1 22//1 32//1
f 32//1 22//1 23//1 33//1
f 33//1 23//1 24//1 34//1
f 34//1 24//1 25//1 35//1
f 35//1 25//1 26//1 36//1
f 108//1 100//1 17//1 37//1
f 37//1 17//1 18//1 38//1
f 38//1 18//1 19//1 39//1
f 39//1 19//1 20//1 40//1
f 40//1 20//1 21//1 41//1
f 15//6 14//6 44//6 45//6
f 12//7 15//7 45//7 42//7
f 16//8 13//8 43//8 46//8
f 14//9 16//9 46//9 44//9
f 87//1 67//1 48//1 52//1
f 82//1 72//1 49//1 51//1
f 73//1 82//1 51//1 47//1
f 72//1 87//1 52//1 49//1
f 57//1 54//1 59//1 62//1
f 51//10 49//10 55//10 56//10
f 52//11 48//11 54//11 57//11
f 47//12 51//12 56//12 53//12
f 49//13 52//13 57//13 55//13
f 53//1 56//1 61//1 58//1
f 56//1 55//1 60//1 61//1
f 55//1 57//1 62//1 60//1
f 160//1 164//1 83//1 68//1
f 68//1 83//1 84//1 69//1
f 69//1 84//1 85//1 70//1
f 70//1 85//1 86//1 71//1
f 71//1 86//1 87//1 72//1
f 158//1 163//1 78//1 77//1
f 77//1 78//1 79//1 76//1
f 76//1 79//1 80//1 75//1
f 75//1 80//1 81//1 74//1
f 74//1 81//1 82//1 73//1
f 163//1 160//1 68//1 78//1
f 78//1 68//1 69//1 79//1
f 79//1 69//1 70//1 80//1
f 80//1 70//1 71//1 81//1
f 81//1 71//1 72//1 82//1
f 164//1 156//1 63//1 83//1
f 83//1 63//1 64//1 84//1
f 84//1 64//1 65//1 85//1
f 85//1 65//1 66//1 86//1
f 86//1 66//1 67//1 87//1
f 61//14 60//14 90//14 91//14
f 58//15 61//15 91//15 88//15
f 62//16 59//16 89//16 92//16
f 60//17 62//17 92//17 90//17
f 143//1 103//1 94//1 123//1
f 138//1 101//1 97//1 128//1
f 129//1 93//1 101//1 138//1
f 95//18 102//18 107//18 105//18
f 105//18 107//18 104//18 98//18
f 128//1 97//1 103//1 143//1
f 98//18 104//18 108//18 106//18
f 106//18 108//18 100//18 96//18
f 113//1 118//1 115//1 110//1
f 101//6 112//6 111//6 97//6
f 103//8 113//8 110//8 94//8
f 93//7 109//7 112//7 101//7
f 97//9 111//9 113//9 103//9
f 109//1 114//1 117//1 112//1
f 112//1 117//1 116//1 111//1
f 111//1 116//1 118//1 113//1
f 104//1 124//1 139//1 108//1
f 124//1 125//1 140//1 139//1
f 125//1 126//1 141//1 140//1
f 126//1 127//1 142//1 141//1
f 127//1 128//1 143//1 142//1
f 102//1 133//1 134//1 107//1
f 133//1 132//1 135//1 134//1
f 132//1 131//1 136//1 135//1
f 131//1 130//1 137//1 136//1
f 130//1 129//1 138//1 137//1
f 107//1 134//1 124//1 104//1
f 134//1 135//1 125//1 124//1
f 135//1 136//1 126//1 125//1
f 136//1 137//1 127//1 126//1
f 137//1 138//1 128//1 127//1
f 108//1 139//1 119//1 100//1
f 139//1 140//1 120//1 119//1
f 140//1 141//1 121//1 120//1
f 141//1 142//1 122//1 121//1
f 142//1 143//1 123//1 122//1
f 117//2 147//2 146//2 116//2
f 114//4 144//4 147//4 117//4
f 118//3 148//3 145//3 115//3
f 116//5 146//5 148//5 118//5
f 199//1 159//1 150//1 179//1
f 194//1 157//1 153//1 184//1
f 185//1 149//1 157//1 194//1
f 151//18 158//18 163//18 161//18
f 161//18 163//18 160//18 154//18
f 184//1 153//1 159//1 199//1
f 154//18 160//18 164//18 162//18
f 162//18 164//18 156//18 152//18
f 169//1 174//1 171//1 166//1
f 157//14 168//14 167//14 153//14
f 159//16 169//16 166//16 150//16
f 149//15 165//15 168//15 157//15
f 153//17 167//17 169//17 159//17
f 165//1 170//1 173//1 168//1
f 168//1 173//1 172//1 167//1
f 167//1 172//1 174//1 169//1
f 160//1 180//1 195//1 164//1
f 180//1 181//1 196//1 195//1
f 181//1 182//1 197//1 196//1
f 182//1 183//1 198//1 197//1
f 183//1 184//1 199//1 198//1
f 158//1 189//1 190//1 163//1
f 189//1 188//1 191//1 190//1
f 188//1 187//1 192//1 191//1
f 187//1 186//1 193//1 192//1
f 186//1 185//1 194//1 193//1
f 163//1 190//1 180//1 160//1
f 190//1 191//1 181//1 180//1
f 191//1 192//1 182//1 181//1
f 192//1 193//1 183//1 182//1
f 193//1 194//1 184//1 183//1
f 164//1 195//1 175//1 156//1
f 195//1 196//1 176//1 175//1
f 196//1 197//1 177//1 176//1
f 197//1 198//1 178//1 177//1
f 198//1 199//1 179//1 178//1
f 173//10 203//10 202//10 172//10
f 170//12 200//12 203//12 173//12
f 174//11 204//11 201//11 171//11
f 172//13 202//13 204//13 174//13
