# Blender v2.79 (sub 0) OBJ File: 'street_tiles_3.blend'
# www.blender.org
mtllib ontrack_car_reifen.mtl
o car_reifen_Cylinder.002
v -0.027961 0.362931 -0.001558
v 0.251241 0.362930 -0.001558
v -0.027961 0.356010 -0.071819
v 0.251241 0.356010 -0.071819
v -0.027961 0.335516 -0.139379
v 0.251241 0.335516 -0.139379
v -0.027961 0.302235 -0.201643
v 0.251241 0.302235 -0.201643
v -0.027961 0.257447 -0.256218
v 0.251241 0.257447 -0.256218
v -0.027961 0.202872 -0.301007
v 0.251241 0.202872 -0.301007
v -0.027961 0.140608 -0.334288
v 0.251241 0.140608 -0.334288
v -0.027961 0.073047 -0.354782
v 0.251241 0.073047 -0.354782
v -0.027961 0.002786 -0.361702
v 0.251241 0.002786 -0.361702
v -0.027961 -0.067474 -0.354782
v 0.251241 -0.067474 -0.354782
v -0.027961 -0.135035 -0.334288
v 0.251241 -0.135035 -0.334288
v -0.027961 -0.197299 -0.301007
v 0.251241 -0.197299 -0.301007
v -0.027961 -0.251874 -0.256218
v 0.251241 -0.251874 -0.256218
v -0.027961 -0.296662 -0.201643
v 0.251241 -0.296662 -0.201643
v -0.027961 -0.329943 -0.139379
v 0.251241 -0.329943 -0.139379
v -0.027961 -0.350437 -0.071818
v 0.251241 -0.350437 -0.071819
v -0.027961 -0.357358 -0.001558
v 0.251241 -0.357358 -0.001558
v -0.027961 -0.350437 0.068703
v 0.251241 -0.350437 0.068703
v -0.027961 -0.329943 0.136264
v 0.251241 -0.329943 0.136264
v -0.027961 -0.296662 0.198528
v 0.251241 -0.296662 0.198528
v -0.027961 -0.251874 0.253103
v 0.251241 -0.251874 0.253103
v -0.027961 -0.197299 0.297891
v 0.251241 -0.197299 0.297891
v -0.027961 -0.135034 0.331172
v 0.251241 -0.135034 0.331172
v -0.027961 -0.067474 0.351666
v 0.251241 -0.067474 0.351666
v -0.027961 0.002787 0.358586
v 0.251241 0.002787 0.358586
v -0.027961 0.073047 0.351666
v 0.251241 0.073047 0.351666
v -0.027961 0.140608 0.331172
v 0.251241 0.140608 0.331172
v -0.027961 0.202872 0.297891
v 0.251241 0.202872 0.297891
v -0.027961 0.257447 0.253102
v 0.251241 0.257447 0.253102
v -0.027961 0.302236 0.198527
v 0.251241 0.302236 0.198527
v -0.027961 0.335516 0.136263
v 0.251241 0.335516 0.136263
v -0.027961 0.356010 0.068702
v 0.251241 0.356010 0.068702
v -0.027961 0.385740 -0.001558
v 0.251241 0.385739 -0.001558
v -0.027961 0.378381 -0.076268
v 0.251241 0.378381 -0.076268
v -0.027961 0.356589 -0.148107
v 0.251241 0.356588 -0.148108
v -0.027961 0.321200 -0.214315
v 0.251241 0.321200 -0.214315
v -0.027961 0.273575 -0.272346
v 0.251241 0.273575 -0.272346
v -0.027961 0.215544 -0.319971
v 0.251241 0.215544 -0.319971
v -0.027961 0.149336 -0.355360
v 0.251241 0.149336 -0.355360
v -0.027961 0.077497 -0.377152
v 0.251241 0.077497 -0.377153
v -0.027961 0.002786 -0.384511
v 0.251241 0.002786 -0.384510
v -0.027961 -0.071924 -0.377152
v 0.251241 -0.071924 -0.377152
v -0.027961 -0.143763 -0.355360
v 0.251241 -0.143763 -0.355360
v -0.027961 -0.209971 -0.319971
v 0.251241 -0.209971 -0.319971
v -0.027961 -0.268002 -0.272346
v 0.251241 -0.268002 -0.272346
v -0.027961 -0.315627 -0.214315
v 0.251241 -0.315627 -0.214315
v -0.027961 -0.351016 -0.148107
v 0.251241 -0.351016 -0.148107
v -0.027961 -0.372808 -0.076268
v 0.251241 -0.372808 -0.076268
v -0.027961 -0.380167 -0.001558
v 0.251241 -0.380167 -0.001558
v -0.027961 -0.372808 0.073152
v 0.251241 -0.372808 0.073152
v -0.027961 -0.351015 0.144992
v 0.251241 -0.351016 0.144992
v -0.027961 -0.315627 0.211199
v 0.251241 -0.315627 0.211199
v -0.027961 -0.268002 0.269231
v 0.251241 -0.268002 0.269231
v -0.027961 -0.209970 0.316856
v 0.251241 -0.209970 0.316856
v -0.027961 -0.143763 0.352244
v 0.251241 -0.143763 0.352244
v -0.027961 -0.071923 0.374037
v 0.251241 -0.071923 0.374037
v -0.027961 0.002787 0.381395
v 0.251241 0.002787 0.381395
v -0.027961 0.077497 0.374037
v 0.251241 0.077497 0.374037
v -0.027961 0.149336 0.352244
v 0.251241 0.149336 0.352244
v -0.027961 0.215544 0.316855
v 0.251241 0.215544 0.316855
v -0.027961 0.273575 0.269230
v 0.251241 0.273575 0.269230
v -0.027961 0.321200 0.211199
v 0.251241 0.321200 0.211199
v -0.027961 0.356589 0.144991
v 0.251241 0.356589 0.144991
v -0.027961 0.378381 0.073152
v 0.251241 0.378381 0.073152
vt 0.670479 0.671314
vt 0.670479 0.657536
vt 0.728903 0.657536
vt 0.728903 0.671314
vt 0.670479 0.645136
vt 0.728903 0.645136
vt 0.553632 0.887812
vt 0.553632 0.877267
vt 0.612056 0.877267
vt 0.612056 0.887812
vt 0.553632 0.864867
vt 0.612056 0.864867
vt 0.553632 0.851089
vt 0.612056 0.851089
vt 0.553632 0.836462
vt 0.612056 0.836462
vt 0.553632 0.821549
vt 0.612056 0.821549
vt 0.553632 0.806922
vt 0.612056 0.806922
vt 0.553632 0.793144
vt 0.612056 0.793144
vt 0.553632 0.780744
vt 0.612056 0.780744
vt 0.553632 0.770198
vt 0.612056 0.770198
vt 0.670479 0.872834
vt 0.670479 0.885234
vt 0.612056 0.885234
vt 0.612056 0.872834
vt 0.670479 0.899013
vt 0.612056 0.899013
vt 0.670479 0.913639
vt 0.612056 0.913639
vt 0.670479 0.928553
vt 0.612056 0.928553
vt 0.670479 0.943179
vt 0.612056 0.943179
vt 0.670479 0.956958
vt 0.612056 0.956958
vt 0.670479 0.969358
vt 0.612056 0.969358
vt 0.670479 0.979903
vt 0.612056 0.979903
vt 0.670479 0.951364
vt 0.670479 0.938964
vt 0.728903 0.938964
vt 0.728903 0.951364
vt 0.670479 0.925185
vt 0.728903 0.925185
vt 0.670479 0.910559
vt 0.728903 0.910559
vt 0.670479 0.895645
vt 0.728903 0.895645
vt 0.670479 0.881019
vt 0.728903 0.881019
vt 0.670479 0.867240
vt 0.728903 0.867240
vt 0.670479 0.854840
vt 0.728903 0.854840
vt 0.670479 0.752204
vt 0.670479 0.741659
vt 0.728903 0.741659
vt 0.728903 0.752204
vt 0.670479 0.729259
vt 0.728903 0.729259
vt 0.670479 0.715481
vt 0.728903 0.715481
vt 0.670479 0.700854
vt 0.728903 0.700854
vt 0.670479 0.685941
vt 0.728903 0.685941
vt 0.612056 0.844998
vt 0.670479 0.844998
vt 0.670479 0.859649
vt 0.612056 0.859649
vt 0.670479 0.872834
vt 0.612056 0.872834
vt 0.553632 0.645136
vt 0.612056 0.645136
vt 0.612056 0.656349
vt 0.553632 0.656349
vt 0.612056 0.669534
vt 0.553632 0.669534
vt 0.612056 0.684185
vt 0.553632 0.684185
vt 0.612056 0.699738
vt 0.553632 0.699738
vt 0.612056 0.715596
vt 0.553632 0.715596
vt 0.612056 0.731149
vt 0.553632 0.731149
vt 0.612056 0.745800
vt 0.553632 0.745800
vt 0.612056 0.758985
vt 0.553632 0.758985
vt 0.612056 0.770198
vt 0.553632 0.770198
vt 0.612056 0.645136
vt 0.670479 0.645136
vt 0.670479 0.658321
vt 0.612056 0.658321
vt 0.670479 0.672972
vt 0.612056 0.672972
vt 0.670479 0.688525
vt 0.612056 0.688525
vt 0.670479 0.704383
vt 0.612056 0.704383
vt 0.670479 0.719936
vt 0.612056 0.719936
vt 0.670479 0.734587
vt 0.612056 0.734587
vt 0.670479 0.747772
vt 0.612056 0.747772
vt 0.670479 0.758985
vt 0.612056 0.758985
vt 0.670479 0.752204
vt 0.728903 0.752204
vt 0.728903 0.765390
vt 0.670479 0.765390
vt 0.728903 0.780040
vt 0.670479 0.780040
vt 0.728903 0.795593
vt 0.670479 0.795594
vt 0.728903 0.811451
vt 0.670479 0.811451
vt 0.728903 0.827004
vt 0.670479 0.827004
vt 0.728903 0.841655
vt 0.670479 0.841655
vt 0.728903 0.854840
vt 0.670479 0.854840
vt 0.612056 0.758985
vt 0.670479 0.758985
vt 0.670479 0.770198
vt 0.612056 0.770198
vt 0.670479 0.783384
vt 0.612056 0.783384
vt 0.670479 0.798034
vt 0.612056 0.798034
vt 0.670479 0.813588
vt 0.612056 0.813588
vt 0.670479 0.829445
vt 0.612056 0.829445
vt 0.407422 0.922508
vt 0.415629 0.934908
vt 0.411940 0.937965
vt 0.403212 0.924780
vt 0.415629 0.773901
vt 0.426076 0.784446
vt 0.423048 0.788171
vt 0.411940 0.776958
vt 0.401768 0.908730
vt 0.397201 0.910129
vt 0.438359 0.792732
vt 0.436109 0.796981
vt 0.398886 0.894104
vt 0.394136 0.894576
vt 0.452008 0.798439
vt 0.450622 0.803049
vt 0.398886 0.879190
vt 0.394136 0.878718
vt 0.466497 0.801348
vt 0.466030 0.806143
vt 0.401768 0.864563
vt 0.397201 0.863165
vt 0.481271 0.801348
vt 0.481739 0.806143
vt 0.407421 0.850785
vt 0.403212 0.848514
vt 0.495760 0.798439
vt 0.497146 0.803049
vt 0.415629 0.838385
vt 0.411940 0.835329
vt 0.509409 0.792732
vt 0.511659 0.796981
vt 0.426075 0.827840
vt 0.423047 0.824116
vt 0.521693 0.784446
vt 0.524720 0.788171
vt 0.438359 0.819555
vt 0.436109 0.815305
vt 0.532139 0.773901
vt 0.535828 0.776958
vt 0.452008 0.813847
vt 0.450622 0.809237
vt 0.540347 0.761501
vt 0.544556 0.763772
vt 0.466497 0.810938
vt 0.466029 0.806143
vt 0.546000 0.747723
vt 0.550567 0.749121
vt 0.481270 0.810938
vt 0.481738 0.806143
vt 0.548882 0.733096
vt 0.553632 0.733568
vt 0.495760 0.813847
vt 0.497145 0.809237
vt 0.548882 0.718183
vt 0.553632 0.717710
vt 0.509409 0.819554
vt 0.511659 0.815305
vt 0.546000 0.703556
vt 0.550567 0.702157
vt 0.521692 0.827840
vt 0.524720 0.824115
vt 0.540346 0.689778
vt 0.544556 0.687507
vt 0.532139 0.838385
vt 0.535828 0.835328
vt 0.532139 0.677378
vt 0.535828 0.674321
vt 0.540346 0.850785
vt 0.544556 0.848514
vt 0.521692 0.666833
vt 0.524720 0.663108
vt 0.546000 0.864563
vt 0.550567 0.863164
vt 0.509409 0.658547
vt 0.511659 0.654298
vt 0.548882 0.879190
vt 0.553632 0.878718
vt 0.495760 0.652840
vt 0.497145 0.648230
vt 0.548882 0.894103
vt 0.553632 0.894575
vt 0.481270 0.649931
vt 0.481738 0.645136
vt 0.546000 0.908730
vt 0.550567 0.910128
vt 0.466497 0.649931
vt 0.466029 0.645136
vt 0.540347 0.922508
vt 0.544556 0.924779
vt 0.452008 0.652840
vt 0.450622 0.648230
vt 0.532139 0.934908
vt 0.535828 0.937965
vt 0.438359 0.658547
vt 0.436109 0.654298
vt 0.521693 0.945453
vt 0.524721 0.949178
vt 0.426075 0.666833
vt 0.423047 0.663108
vt 0.509409 0.953739
vt 0.511659 0.957988
vt 0.415629 0.677378
vt 0.411940 0.674322
vt 0.495760 0.959446
vt 0.497146 0.964056
vt 0.407421 0.689778
vt 0.403212 0.687507
vt 0.481271 0.962355
vt 0.481739 0.967150
vt 0.401768 0.703556
vt 0.397201 0.702158
vt 0.466497 0.962355
vt 0.466030 0.967150
vt 0.398886 0.718183
vt 0.394136 0.717711
vt 0.452008 0.959446
vt 0.450623 0.964057
vt 0.398886 0.733096
vt 0.394136 0.733569
vt 0.438359 0.953739
vt 0.436109 0.957988
vt 0.401768 0.747723
vt 0.397201 0.749122
vt 0.426075 0.945454
vt 0.423048 0.949178
vt 0.407422 0.761501
vt 0.403212 0.763773
vn -0.0000 -1.0000 0.0000
vn -0.0000 -0.9808 0.1951
vn -0.0000 -0.9239 0.3827
vn 0.0000 -0.8315 0.5556
vn 0.0000 -0.7071 0.7071
vn 0.0000 -0.5556 0.8315
vn 0.0000 -0.3827 0.9239
vn 0.0000 -0.1951 0.9808
vn 0.0000 0.0000 1.0000
vn 0.0000 0.1951 0.9808
vn 0.0000 0.3827 0.9239
vn 0.0000 0.5556 0.8315
vn 0.0000 0.7071 0.7071
vn 0.0000 0.8315 0.5556
vn 0.0000 0.9239 0.3827
vn 0.0000 0.9808 0.1951
vn 0.0000 1.0000 0.0000
vn 0.0000 0.9808 -0.1951
vn 0.0000 0.9239 -0.3827
vn 0.0000 0.8315 -0.5556
vn 0.0000 0.7071 -0.7071
vn 0.0000 0.5556 -0.8315
vn -0.0000 0.3827 -0.9239
vn -0.0000 0.1951 -0.9808
vn -0.0000 -0.0000 -1.0000
vn -0.0000 -0.1951 -0.9808
vn -0.0000 -0.3827 -0.9239
vn -0.0000 -0.5556 -0.8315
vn 0.0000 -0.7071 -0.7071
vn -0.0000 -0.8315 -0.5556
vn -0.0000 -0.9239 -0.3827
vn -0.0000 -0.9808 -0.1951
vn -1.0000 -0.0000 -0.0000
vn 1.0000 -0.0000 0.0000
usemtl reifen_mat
s 1
f 1/1/1 3/2/2 4/3/2 2/4/1
f 3/2/2 5/5/3 6/6/3 4/3/2
f 5/7/3 7/8/4 8/9/4 6/10/3
f 7/8/4 9/11/5 10/12/5 8/9/4
f 9/11/5 11/13/6 12/14/6 10/12/5
f 11/13/6 13/15/7 14/16/7 12/14/6
f 13/15/7 15/17/8 16/18/8 14/16/7
f 15/17/8 17/19/9 18/20/9 16/18/8
f 17/19/9 19/21/10 20/22/10 18/20/9
f 19/21/10 21/23/11 22/24/11 20/22/10
f 21/23/11 23/25/12 24/26/12 22/24/11
f 23/27/12 25/28/13 26/29/13 24/30/12
f 25/28/13 27/31/14 28/32/14 26/29/13
f 27/31/14 29/33/15 30/34/15 28/32/14
f 29/33/15 31/35/16 32/36/16 30/34/15
f 31/35/16 33/37/17 34/38/17 32/36/16
f 33/37/17 35/39/18 36/40/18 34/38/17
f 35/39/18 37/41/19 38/42/19 36/40/18
f 37/41/19 39/43/20 40/44/20 38/42/19
f 39/45/20 41/46/21 42/47/21 40/48/20
f 41/46/21 43/49/22 44/50/22 42/47/21
f 43/49/22 45/51/23 46/52/23 44/50/22
f 45/51/23 47/53/24 48/54/24 46/52/23
f 47/53/24 49/55/25 50/56/25 48/54/24
f 49/55/25 51/57/26 52/58/26 50/56/25
f 51/57/26 53/59/27 54/60/27 52/58/26
f 53/61/27 55/62/28 56/63/28 54/64/27
f 55/62/28 57/65/29 58/66/29 56/63/28
f 57/65/29 59/67/30 60/68/30 58/66/29
f 59/67/30 61/69/31 62/70/31 60/68/30
f 61/69/31 63/71/32 64/72/32 62/70/31
f 63/71/32 1/1/1 2/4/1 64/72/32
f 65/73/17 66/74/17 68/75/18 67/76/18
f 67/76/18 68/75/18 70/77/19 69/78/19
f 69/79/19 70/80/19 72/81/20 71/82/20
f 71/82/20 72/81/20 74/83/21 73/84/21
f 73/84/21 74/83/21 76/85/22 75/86/22
f 75/86/22 76/85/22 78/87/23 77/88/23
f 77/88/23 78/87/23 80/89/24 79/90/24
f 79/90/24 80/89/24 82/91/25 81/92/25
f 81/92/25 82/91/25 84/93/26 83/94/26
f 83/94/26 84/93/26 86/95/27 85/96/27
f 85/96/27 86/95/27 88/97/28 87/98/28
f 87/99/28 88/100/28 90/101/29 89/102/29
f 89/102/29 90/101/29 92/103/30 91/104/30
f 91/104/30 92/103/30 94/105/31 93/106/31
f 93/106/31 94/105/31 96/107/32 95/108/32
f 95/108/32 96/107/32 98/109/1 97/110/1
f 97/110/1 98/109/1 100/111/2 99/112/2
f 99/112/2 100/111/2 102/113/3 101/114/3
f 101/114/3 102/113/3 104/115/4 103/116/4
f 103/117/4 104/118/4 106/119/5 105/120/5
f 105/120/5 106/119/5 108/121/6 107/122/6
f 107/122/6 108/121/6 110/123/7 109/124/7
f 109/124/7 110/123/7 112/125/8 111/126/8
f 111/126/8 112/125/8 114/127/9 113/128/9
f 113/128/9 114/127/9 116/129/10 115/130/10
f 115/130/10 116/129/10 118/131/11 117/132/11
f 117/133/11 118/134/11 120/135/12 119/136/12
f 119/136/12 120/135/12 122/137/13 121/138/13
f 121/138/13 122/137/13 124/139/14 123/140/14
f 123/140/14 124/139/14 126/141/15 125/142/15
f 125/142/15 126/141/15 128/143/16 127/144/16
f 127/144/16 128/143/16 66/74/17 65/73/17
f 3/145/33 1/146/33 65/147/33 67/148/33
f 2/149/34 4/150/34 68/151/34 66/152/34
f 5/153/33 3/145/33 67/148/33 69/154/33
f 4/150/34 6/155/34 70/156/34 68/151/34
f 7/157/33 5/153/33 69/154/33 71/158/33
f 6/155/34 8/159/34 72/160/34 70/156/34
f 9/161/33 7/157/33 71/158/33 73/162/33
f 8/159/34 10/163/34 74/164/34 72/160/34
f 11/165/33 9/161/33 73/162/33 75/166/33
f 10/163/34 12/167/34 76/168/34 74/164/34
f 13/169/33 11/165/33 75/166/33 77/170/33
f 12/167/34 14/171/34 78/172/34 76/168/34
f 15/173/33 13/169/33 77/170/33 79/174/33
f 14/171/34 16/175/34 80/176/34 78/172/34
f 17/177/33 15/173/33 79/174/33 81/178/33
f 16/175/34 18/179/34 82/180/34 80/176/34
f 19/181/33 17/177/33 81/178/33 83/182/33
f 18/179/34 20/183/34 84/184/34 82/180/34
f 21/185/33 19/181/33 83/182/33 85/186/33
f 20/183/34 22/187/34 86/188/34 84/184/34
f 23/189/33 21/185/33 85/186/33 87/190/33
f 22/187/34 24/191/34 88/192/34 86/188/34
f 25/193/33 23/189/33 87/190/33 89/194/33
f 24/191/34 26/195/34 90/196/34 88/192/34
f 27/197/33 25/193/33 89/194/33 91/198/33
f 26/195/34 28/199/34 92/200/34 90/196/34
f 29/201/33 27/197/33 91/198/33 93/202/33
f 28/199/34 30/203/34 94/204/34 92/200/34
f 31/205/33 29/201/33 93/202/33 95/206/33
f 30/203/34 32/207/34 96/208/34 94/204/34
f 33/209/33 31/205/33 95/206/33 97/210/33
f 32/207/34 34/211/34 98/212/34 96/208/34
f 35/213/33 33/209/33 97/210/33 99/214/33
f 34/211/34 36/215/34 100/216/34 98/212/34
f 37/217/33 35/213/33 99/214/33 101/218/33
f 36/215/34 38/219/34 102/220/34 100/216/34
f 39/221/33 37/217/33 101/218/33 103/222/33
f 38/219/34 40/223/34 104/224/34 102/220/34
f 41/225/33 39/221/33 103/222/33 105/226/33
f 40/223/34 42/227/34 106/228/34 104/224/34
f 43/229/33 41/225/33 105/226/33 107/230/33
f 42/227/34 44/231/34 108/232/34 106/228/34
f 45/233/33 43/229/33 107/230/33 109/234/33
f 44/231/34 46/235/34 110/236/34 108/232/34
f 47/237/33 45/233/33 109/234/33 111/238/33
f 46/235/34 48/239/34 112/240/34 110/236/34
f 49/241/33 47/237/33 111/238/33 113/242/33
f 48/239/34 50/243/34 114/244/34 112/240/34
f 51/245/33 49/241/33 113/242/33 115/246/33
f 50/243/34 52/247/34 116/248/34 114/244/34
f 53/249/33 51/245/33 115/246/33 117/250/33
f 52/247/34 54/251/34 118/252/34 116/248/34
f 55/253/33 53/249/33 117/250/33 119/254/33
f 54/251/34 56/255/34 120/256/34 118/252/34
f 57/257/33 55/253/33 119/254/33 121/258/33
f 56/255/34 58/259/34 122/260/34 120/256/34
f 59/261/33 57/257/33 121/258/33 123/262/33
f 58/259/34 60/263/34 124/264/34 122/260/34
f 61/265/33 59/261/33 123/262/33 125/266/33
f 60/263/34 62/267/34 126/268/34 124/264/34
f 63/269/33 61/265/33 125/266/33 127/270/33
f 62/267/34 64/271/34 128/272/34 126/268/34
f 1/146/33 63/269/33 127/270/33 65/147/33
f 64/271/34 2/149/34 66/152/34 128/272/34
