# Blender v2.79 (sub 0) OBJ File: 'street_tiles_3.blend'
# www.blender.org
mtllib ontrack_road_uturn.mtl
o road_u_turn_Plane.004
v 0.000000 0.000000 -3.000000
v 0.819719 0.000000 -3.819719
v 0.579629 0.000000 -3.240090
v 6.300599 0.000000 -1.209926
v 0.313693 0.000000 -3.062397
v 0.757322 0.000000 -3.506026
v 0.000000 0.293464 -3.000000
v 0.819719 0.293464 -3.819719
v 0.579629 0.293464 -3.240090
v 0.313693 0.293464 -3.062397
v 0.757322 0.293464 -3.506026
v 0.000000 0.293464 -3.343409
v 0.476311 0.293464 -3.819719
v 0.336803 0.293464 -3.482917
v 0.182276 0.293464 -3.379666
v 0.440054 0.293464 -3.637443
v 3.319719 0.000000 -3.819720
v 2.819719 0.000000 -3.819720
v 2.319719 0.000000 -3.819719
v 1.819719 0.000000 -3.819719
v 1.319719 0.000000 -3.819719
v 2.347396 0.000000 -1.472323
v 1.993843 0.000000 -1.825877
v 1.640289 0.000000 -2.179430
v 1.286736 0.000000 -2.532983
v 0.933182 0.000000 -2.886537
v 0.000000 0.000000 -2.500000
v 0.000000 0.000000 -2.000000
v 0.000000 0.000000 -1.500000
v 0.000000 0.000000 -1.000000
v 0.000000 0.000000 -0.500000
v 1.270402 0.000000 -0.752699
v 1.079060 0.000000 -1.214638
v 0.887718 0.000000 -1.676578
v 0.696377 0.000000 -2.138518
v 0.505035 0.000000 -2.600458
v 3.067021 0.000000 -2.549318
v 2.605081 0.000000 -2.740659
v 2.143141 0.000000 -2.932001
v 1.681201 0.000000 -3.123343
v 1.219262 0.000000 -3.314685
v 0.000000 -0.000000 -3.343409
v 0.476311 -0.000000 -3.819719
v 0.336803 -0.000000 -3.482917
v 0.182276 -0.000000 -3.379666
v 0.440054 -0.000000 -3.637443
v 0.819719 0.000000 -3.819719
v -0.000000 0.000000 -4.639439
v 0.579629 0.000000 -4.399348
v 2.609794 0.000000 -10.120318
v 0.757322 0.000000 -4.133412
v 0.313693 0.000000 -4.577041
v 0.819719 0.293464 -3.819719
v -0.000000 0.293464 -4.639439
v 0.579629 0.293464 -4.399348
v 0.757322 0.293464 -4.133412
v 0.313693 0.293464 -4.577041
v 0.476311 0.293464 -3.819719
v -0.000000 0.293464 -4.296030
v 0.336803 0.293464 -4.156522
v 0.440054 0.293464 -4.001996
v 0.182276 0.293464 -4.259773
v -0.000000 0.000000 -7.139439
v -0.000000 0.000000 -6.639439
v -0.000000 0.000000 -6.139439
v -0.000000 0.000000 -5.639439
v -0.000000 0.000000 -5.139439
v 2.347396 0.000000 -6.167115
v 1.993843 0.000000 -5.813562
v 1.640289 0.000000 -5.460009
v 1.286736 0.000000 -5.106455
v 0.933182 0.000000 -4.752902
v 1.319719 0.000000 -3.819719
v 1.819719 0.000000 -3.819719
v 2.319719 0.000000 -3.819719
v 2.819719 0.000000 -3.819720
v 3.319719 0.000000 -3.819720
v 3.067021 0.000000 -5.090121
v 2.605081 0.000000 -4.898779
v 2.143141 0.000000 -4.707438
v 1.681201 0.000000 -4.516096
v 1.219262 0.000000 -4.324754
v 1.270402 0.000000 -6.886740
v 1.079060 0.000000 -6.424800
v 0.887718 0.000000 -5.962860
v 0.696377 0.000000 -5.500921
v 0.505035 0.000000 -5.038981
v 0.476311 -0.000000 -3.819719
v -0.000000 -0.000000 -4.296030
v 0.336803 -0.000000 -4.156522
v 0.440054 -0.000000 -4.001996
v 0.182276 -0.000000 -4.259773
v 0.000000 0.000000 3.000000
v 6.819719 0.000000 -3.819720
v 0.000000 0.000000 0.000000
v 3.819719 0.000000 -3.819720
v 4.822270 0.000000 1.002551
v 2.700949 0.000000 -1.118770
v 0.757322 0.000000 -3.506026
v 3.819719 0.000000 -3.819720
v 2.609794 0.000000 2.480880
v 0.000000 0.000000 0.000000
v 6.300599 0.000000 -1.209926
v 2.700949 0.000000 -1.118770
v 1.461743 0.000000 -0.290759
v 3.528960 0.000000 -2.357976
v 1.461743 0.000000 -0.290759
v 3.528960 0.000000 -2.357976
v 0.000000 0.293464 3.000000
v 6.819719 0.293464 -3.819720
v 4.822270 0.293464 1.002551
v 2.609794 0.293464 2.480880
v 6.300599 0.293464 -1.209926
v 0.000000 0.293464 3.343409
v 7.163128 0.293464 -3.819720
v 5.065096 0.293464 1.245377
v 2.741210 0.293464 2.798148
v 6.617867 0.293464 -1.078509
v 4.319719 0.000000 -3.819720
v 4.819719 0.000000 -3.819720
v 5.319719 0.000000 -3.819720
v 5.819719 0.000000 -3.819720
v 6.319719 0.000000 -3.819720
v 3.054503 0.000000 -0.765217
v 3.408056 0.000000 -0.411663
v 3.761610 0.000000 -0.058110
v 4.115163 0.000000 0.295444
v 4.468716 0.000000 0.648997
v 0.000000 0.000000 2.500000
v 0.000000 0.000000 2.000000
v 0.000000 0.000000 1.500000
v 0.000000 0.000000 1.000000
v 0.000000 0.000000 0.500000
v 1.653085 0.000000 0.171181
v 1.844427 0.000000 0.633121
v 2.035769 0.000000 1.095060
v 2.227110 0.000000 1.557000
v 2.418452 0.000000 2.018940
v 3.990900 0.000000 -2.166634
v 4.452840 0.000000 -1.975293
v 4.914780 0.000000 -1.783951
v 5.376719 0.000000 -1.592609
v 5.838659 0.000000 -1.401268
v 0.000000 -0.000000 3.343409
v 7.163128 -0.000000 -3.819720
v 5.065096 -0.000000 1.245377
v 2.741210 -0.000000 2.798148
v 6.617867 -0.000000 -1.078509
v 6.819719 0.000000 -3.819720
v -0.000001 0.000000 -10.639439
v 3.819719 0.000000 -3.819720
v -0.000000 0.000000 -7.639439
v 4.822270 0.000000 -8.641989
v 2.700949 0.000000 -6.520669
v 0.313693 0.000000 -4.577041
v -0.000000 0.000000 -7.639439
v 6.300599 0.000000 -6.429513
v 3.819719 0.000000 -3.819720
v 2.609794 0.000000 -10.120318
v 2.700949 0.000000 -6.520669
v 3.528960 0.000000 -5.281463
v 1.461743 0.000000 -7.348680
v 3.528960 0.000000 -5.281463
v 1.461743 0.000000 -7.348680
v 6.819719 0.293464 -3.819720
v -0.000001 0.293464 -10.639439
v 4.822270 0.293464 -8.641989
v 6.300599 0.293464 -6.429513
v 2.609794 0.293464 -10.120318
v 7.163128 0.293464 -3.819720
v -0.000001 0.293464 -10.982847
v 5.065096 0.293464 -8.884815
v 6.617867 0.293464 -6.560930
v 2.741211 0.293464 -10.437586
v -0.000000 0.000000 -8.139439
v -0.000000 0.000000 -8.639439
v -0.000000 0.000000 -9.139439
v -0.000001 0.000000 -9.639439
v -0.000001 0.000000 -10.139439
v 3.054503 0.000000 -6.874222
v 3.408056 0.000000 -7.227776
v 3.761610 0.000000 -7.581329
v 4.115163 0.000000 -7.934882
v 4.468716 0.000000 -8.288435
v 6.319719 0.000000 -3.819720
v 5.819719 0.000000 -3.819720
v 5.319719 0.000000 -3.819720
v 4.819719 0.000000 -3.819720
v 4.319719 0.000000 -3.819720
v 3.990900 0.000000 -5.472805
v 4.452840 0.000000 -5.664146
v 4.914780 0.000000 -5.855488
v 5.376719 0.000000 -6.046830
v 5.838659 0.000000 -6.238172
v 1.653085 0.000000 -7.810619
v 1.844427 0.000000 -8.272559
v 2.035769 0.000000 -8.734499
v 2.227110 0.000000 -9.196439
v 2.418452 0.000000 -9.658379
v 7.163128 -0.000000 -3.819720
v -0.000001 -0.000000 -10.982847
v 5.065096 -0.000000 -8.884815
v 6.617867 -0.000000 -6.560930
v 2.741211 -0.000000 -10.437586
vn 0.0000 1.0000 0.0000
vn 0.5556 0.0000 0.8315
vn 0.9808 0.0000 0.1951
vn 0.1951 0.0000 0.9808
vn 0.8315 0.0000 0.5556
vn -0.5556 0.0000 -0.8315
vn -0.1951 0.0000 -0.9808
vn -0.9808 0.0000 -0.1951
vn -0.8315 0.0000 -0.5556
vn 0.8315 0.0000 -0.5556
vn 0.1951 0.0000 -0.9808
vn 0.9808 0.0000 -0.1951
vn 0.5556 0.0000 -0.8315
vn -0.8315 0.0000 0.5556
vn -0.9808 0.0000 0.1951
vn -0.1951 0.0000 0.9808
vn -0.5556 0.0000 0.8315
vn 0.0000 0.0000 1.0000
usemtl None
s off
f 41//1 21//1 2//1 6//1
f 36//1 26//1 3//1 5//1
f 27//1 36//1 5//1 1//1
f 26//1 41//1 6//1 3//1
f 11//1 8//1 13//1 16//1
f 5//2 3//2 9//2 10//2
f 6//3 2//3 8//3 11//3
f 1//4 5//4 10//4 7//4
f 3//5 6//5 11//5 9//5
f 7//1 10//1 15//1 12//1
f 10//1 9//1 14//1 15//1
f 9//1 11//1 16//1 14//1
f 104//1 108//1 37//1 22//1
f 22//1 37//1 38//1 23//1
f 23//1 38//1 39//1 24//1
f 24//1 39//1 40//1 25//1
f 25//1 40//1 41//1 26//1
f 102//1 107//1 32//1 31//1
f 31//1 32//1 33//1 30//1
f 30//1 33//1 34//1 29//1
f 29//1 34//1 35//1 28//1
f 28//1 35//1 36//1 27//1
f 107//1 104//1 22//1 32//1
f 32//1 22//1 23//1 33//1
f 33//1 23//1 24//1 34//1
f 34//1 24//1 25//1 35//1
f 35//1 25//1 26//1 36//1
f 108//1 100//1 17//1 37//1
f 37//1 17//1 18//1 38//1
f 38//1 18//1 19//1 39//1
f 39//1 19//1 20//1 40//1
f 40//1 20//1 21//1 41//1
f 15//6 14//6 44//6 45//6
f 12//7 15//7 45//7 42//7
f 16//8 13//8 43//8 46//8
f 14//9 16//9 46//9 44//9
f 87//1 67//1 48//1 52//1
f 82//1 72//1 49//1 51//1
f 73//1 82//1 51//1 47//1
f 72//1 87//1 52//1 49//1
f 57//1 54//1 59//1 62//1
f 51//10 49//10 55//10 56//10
f 52//11 48//11 54//11 57//11
f 47//12 51//12 56//12 53//12
f 49//13 52//13 57//13 55//13
f 53//1 56//1 61//1 58//1
f 56//1 55//1 60//1 61//1
f 55//1 57//1 62//1 60//1
f 160//1 164//1 83//1 68//1
f 68//1 83//1 84//1 69//1
f 69//1 84//1 85//1 70//1
f 70//1 85//1 86//1 71//1
f 71//1 86//1 87//1 72//1
f 158//1 163//1 78//1 77//1
f 77//1 78//1 79//1 76//1
f 76//1 79//1 80//1 75//1
f 75//1 80//1 81//1 74//1
f 74//1 81//1 82//1 73//1
f 163//1 160//1 68//1 78//1
f 78//1 68//1 69//1 79//1
f 79//1 69//1 70//1 80//1
f 80//1 70//1 71//1 81//1
f 81//1 71//1 72//1 82//1
f 164//1 156//1 63//1 83//1
f 83//1 63//1 64//1 84//1
f 84//1 64//1 65//1 85//1
f 85//1 65//1 66//1 86//1
f 86//1 66//1 67//1 87//1
f 61//14 60//14 90//14 91//14
f 58//15 61//15 91//15 88//15
f 62//16 59//16 89//16 92//16
f 60//17 62//17 92//17 90//17
f 143//1 103//1 94//1 123//1
f 138//1 101//1 97//1 128//1
f 129//1 93//1 101//1 138//1
f 95//18 102//18 107//18 105//18
f 105//18 107//18 104//18 98//18
f 128//1 97//1 103//1 143//1
f 98//18 104//18 108//18 106//18
f 106//18 108//18 100//18 96//18
f 113//1 118//1 115//1 110//1
f 101//6 112//6 111//6 97//6
f 103//8 113//8 110//8 94//8
f 93//7 109//7 112//7 101//7
f 97//9 111//9 113//9 103//9
f 109//1 114//1 117//1 112//1
f 112//1 117//1 116//1 111//1
f 111//1 116//1 118//1 113//1
f 104//1 124//1 139//1 108//1
f 124//1 125//1 140//1 139//1
f 125//1 126//1 141//1 140//1
f 126//1 127//1 142//1 141//1
f 127//1 128//1 143//1 142//1
f 102//1 133//1 134//1 107//1
f 133//1 132//1 135//1 134//1
f 132//1 131//1 136//1 135//1
f 131//1 130//1 137//1 136//1
f 130//1 129//1 138//1 137//1
f 107//1 134//1 124//1 104//1
f 134//1 135//1 125//1 124//1
f 135//1 136//1 126//1 125//1
f 136//1 137//1 127//1 126//1
f 137//1 138//1 128//1 127//1
f 108//1 139//1 119//1 100//1
f 139//1 140//1 120//1 119//1
f 140//1 141//1 121//1 120//1
f 141//1 142//1 122//1 121//1
f 142//1 143//1 123//1 122//1
f 117//2 147//2 146//2 116//2
f 114//4 144//4 147//4 117//4
f 118//3 148//3 145//3 115//3
f 116//5 146//5 148//5 118//5
f 199//1 159//1 150//1 179//1
f 194//1 157//1 153//1 184//1
f 185//1 149//1 157//1 194//1
f 151//18 158//18 163//18 161//18
f 161//18 163//18 160//18 154//18
f 184//1 153//1 159//1 199//1
f 154//18 160//18 164//18 162//18
f 162//18 164//18 156//18 152//18
f 169//1 174//1 171//1 166//1
f 157//14 168//14 167//14 153//14
f 159//16 169//16 166//16 150//16
f 149//15 165//15 168//15 157//15
f 153//17 167//17 169//17 159//17
f 165//1 170//1 173//1 168//1
f 168//1 173//1 172//1 167//1
f 167//1 172//1 174//1 169//1
f 160//1 180//1 195//1 164//1
f 180//1 181//1 196//1 195//1
f 181//1 182//1 197//1 196//1
f 182//1 183//1 198//1 197//1
f 183//1 184//1 199//1 198//1
f 158//1 189//1 190//1 163//1
f 189//1 188//1 191//1 190//1
f 188//1 187//1 192//1 191//1
f 187//1 186//1 193//1 192//1
f 186//1 185//1 194//1 193//1
f 163//1 190//1 180//1 160//1
f 190//1 191//1 181//1 180//1
f 191//1 192//1 182//1 181//1
f 192//1 193//1 183//1 182//1
f 193//1 194//1 184//1 183//1
f 164//1 195//1 175//1 156//1
f 195//1 196//1 176//1 175//1
f 196//1 197//1 177//1 176//1
f 197//1 198//1 178//1 177//1
f 198//1 199//1 179//1 178//1
f 173//10 203//10 202//10 172//10
f 170//12 200//12 203//12 173//12
f 174//11 204//11 201//11 171//11
f 172//13 202//13 204//13 174//13
